<?xml version="1.0" standalone="no"?>
<!DOCTYPE svg PUBLIC "-//W3C//DTD SVG 20010904//EN"
 "http://www.w3.org/TR/2001/REC-SVG-20010904/DTD/svg10.dtd">
<svg version="1.0" xmlns="http://www.w3.org/2000/svg"
 width="1900.000000pt" height="901.000000pt" viewBox="0 0 1900.000000 901.000000"
 preserveAspectRatio="xMidYMid meet">

<g transform="translate(0.000000,901.000000) scale(0.100000,-0.100000)"
fill="#000000" stroke="none">
<path d="M0 8545 l0 -465 9495 0 9495 0 3 -4042 2 -4043 3 4508 2 4507 -9500
0 -9500 0 0 -465z m9235 285 c0 -22 -5 -25 -37 -28 -36 -3 -38 -2 -38 28 0 30
2 31 38 28 32 -3 37 -6 37 -28z m1003 -177 l2 -203 -40 0 c-34 0 -40 3 -40 21
l0 20 -26 -20 c-26 -21 -84 -28 -118 -15 -9 3 -26 22 -38 42 -42 69 -24 212
31 242 30 15 99 12 126 -6 l25 -16 0 71 0 72 38 -3 37 -3 3 -202z m1312 2 l0
-205 -40 0 -40 0 0 205 0 205 40 0 40 0 0 -205z m150 175 c0 -28 -3 -30 -35
-30 -32 0 -35 2 -35 30 0 28 3 30 35 30 32 0 35 -2 35 -30z m-4140 -9 c41 -21
67 -81 56 -125 -7 -29 -42 -70 -66 -78 -10 -3 -1 -24 33 -79 26 -42 47 -79 47
-82 0 -4 -18 -7 -40 -7 -40 0 -42 2 -88 75 l-47 75 -47 0 -48 0 0 -76 0 -75
-37 3 -38 3 -3 193 -2 192 122 0 c101 0 130 -3 158 -19z m3507 -25 c33 -35 35
-42 31 -88 -4 -39 -12 -57 -37 -81 -29 -30 -36 -32 -116 -36 l-85 -3 0 -70 0
-69 -37 3 -38 3 -3 194 -2 193 126 -3 126 -4 35 -39z m-3181 -61 c28 -19 54
-75 54 -114 l0 -30 -92 -3 c-92 -3 -93 -3 -90 -27 5 -52 63 -80 92 -46 16 20
80 20 80 1 0 -8 -14 -26 -31 -40 -25 -22 -41 -26 -89 -26 -48 0 -64 5 -88 25
-64 53 -67 182 -7 242 30 30 39 33 92 33 35 0 67 -6 79 -15z m340 -19 c36 -41
32 -66 -10 -66 -25 0 -38 6 -50 25 -21 32 -59 33 -80 3 -10 -14 -16 -44 -16
-78 0 -92 53 -133 98 -75 15 18 29 25 56 25 39 0 42 -4 22 -38 -21 -39 -66
-62 -121 -62 -55 0 -100 23 -121 62 -18 32 -17 142 1 178 23 45 60 61 134 57
55 -3 67 -7 87 -31z m303 20 c85 -44 93 -187 16 -255 -31 -27 -43 -31 -93 -31
-107 0 -157 55 -150 166 4 66 27 106 73 124 33 14 124 11 154 -4z m204 -7 l6
-20 20 20 c31 31 103 29 128 -3 l19 -24 22 25 c18 20 29 24 68 21 38 -2 51 -8
68 -31 18 -24 21 -42 21 -145 l0 -117 -37 -3 -38 -3 0 84 c0 108 -8 145 -33
159 -17 9 -24 6 -44 -16 -21 -24 -23 -37 -23 -127 l0 -100 -37 3 -38 3 -3 105
c-2 79 -7 109 -19 122 -19 22 -24 22 -49 4 -16 -12 -20 -30 -24 -123 l-5 -108
-37 -3 -38 -3 0 150 0 151 34 0 c26 0 35 -5 39 -21z m502 -129 l0 -145 -37 -3
-38 -3 0 151 0 151 38 -3 37 -3 0 -145z m283 125 c26 -22 52 -84 52 -124 0 -7
-34 -11 -90 -11 -101 0 -116 -10 -89 -59 17 -31 69 -41 89 -17 11 15 80 23 80
10 0 -3 -5 -14 -10 -25 -16 -29 -64 -49 -120 -49 -43 0 -55 5 -87 34 -34 31
-37 38 -41 100 -7 115 34 166 135 166 40 0 58 -5 81 -25z m182 -1 l0 -27 26
27 c38 37 110 37 145 0 23 -24 24 -32 24 -147 l0 -122 -37 -3 -38 -3 0 95 c0
133 -17 168 -74 146 -33 -12 -46 -58 -46 -156 l0 -84 -34 0 -35 0 -3 143 c-2
78 -2 145 0 150 2 4 19 7 38 7 30 0 34 -3 34 -26z m821 -3 c28 -28 29 -33 29
-121 0 -83 2 -92 20 -97 13 -3 20 -14 20 -29 0 -21 -5 -24 -39 -24 -29 0 -44
6 -55 21 l-15 22 -27 -22 c-35 -27 -103 -28 -135 -2 -19 15 -24 29 -24 66 0
39 5 51 28 71 23 20 39 24 88 24 62 0 70 9 53 54 -9 24 -61 21 -74 -4 -12 -22
-64 -28 -76 -9 -9 15 14 55 40 67 11 6 47 11 79 11 52 1 62 -2 88 -28z m823
17 c35 -15 55 -49 63 -103 l6 -45 -91 0 c-50 0 -93 -4 -96 -9 -8 -12 12 -63
27 -73 20 -13 54 -9 67 7 16 20 80 20 80 1 0 -8 -14 -26 -31 -40 -25 -22 -41
-26 -91 -26 -55 0 -63 3 -93 33 -60 60 -60 174 0 234 29 29 40 33 84 33 27 0
61 -5 75 -12z m356 -138 l0 -150 -35 0 -35 0 0 150 0 150 35 0 35 0 0 -150z"/>
<path d="M10056 8678 c-10 -14 -16 -44 -16 -78 0 -64 20 -100 54 -100 46 0 75
64 62 134 -4 20 -14 42 -22 51 -22 22 -60 19 -78 -7z"/>
<path d="M7364 8766 c-3 -7 -4 -33 -2 -57 l3 -44 54 -3 c30 -2 67 2 82 8 49
21 51 77 3 98 -36 17 -133 16 -140 -2z"/>
<path d="M10864 8766 c-3 -7 -4 -35 -2 -62 l3 -49 56 -3 c51 -3 59 0 78 24 27
34 26 49 -4 79 -19 20 -34 25 -75 25 -34 0 -52 -5 -56 -14z"/>
<path d="M7773 8688 c-31 -40 -25 -48 37 -48 52 0 59 2 53 18 -11 31 -25 42
-53 42 -15 0 -32 -6 -37 -12z"/>
<path d="M8414 8692 c-21 -13 -34 -51 -34 -95 0 -81 62 -125 110 -77 25 25 28
124 4 158 -15 22 -57 30 -80 14z"/>
<path d="M9390 8674 c-6 -14 -10 -27 -10 -30 0 -2 25 -4 55 -4 57 0 63 6 45
41 -8 13 -21 19 -46 19 -28 0 -36 -5 -44 -26z"/>
<path d="M10386 8574 c-19 -18 -20 -28 -6 -55 15 -27 45 -24 69 7 33 41 28 64
-13 64 -19 0 -42 -7 -50 -16z"/>
<path d="M11243 8688 c-31 -40 -25 -48 37 -48 33 0 60 3 60 8 0 4 -7 18 -16
30 -17 24 -65 30 -81 10z"/>
<path d="M6870 6966 l0 -136 25 0 26 0 -3 133 c-3 128 -4 132 -25 135 -23 3
-23 3 -23 -132z"/>
<path d="M6987 7074 c-11 -14 -16 -28 -13 -31 5 -5 86 45 86 53 0 2 -12 4 -27
4 -18 -1 -35 -10 -46 -26z"/>
<path d="M7510 6965 l0 -135 25 0 25 0 0 135 0 135 -25 0 -25 0 0 -135z"/>
<path d="M9747 7093 c-4 -3 -7 -24 -7 -45 0 -36 -12 -49 -25 -28 -11 18 -56
10 -80 -15 -20 -19 -25 -34 -25 -77 0 -84 15 -97 105 -96 l75 1 0 133 c0 123
-1 134 -18 134 -10 0 -22 -3 -25 -7z m-11 -127 c16 -65 -15 -124 -53 -100 -22
13 -30 89 -12 110 19 23 58 18 65 -10z"/>
<path d="M10180 7055 c0 -42 -11 -58 -25 -35 -12 19 -61 10 -85 -15 -18 -19
-23 -36 -23 -80 0 -81 16 -94 109 -93 l74 1 0 133 0 134 -25 0 c-23 0 -25 -4
-25 -45z m-10 -84 c32 -62 -15 -142 -58 -99 -13 13 -16 75 -6 102 9 22 51 20
64 -3z"/>
<path d="M6418 7084 c-5 -4 -8 -63 -8 -131 l0 -123 24 0 c22 0 25 5 28 43 l3
42 50 6 c69 8 82 16 95 53 12 36 3 73 -23 95 -18 14 -158 27 -169 15z m140
-72 c5 -34 -15 -52 -59 -52 -39 0 -39 0 -39 41 l0 40 48 -3 c40 -3 47 -6 50
-26z"/>
<path d="M7938 7084 c-5 -4 -8 -63 -8 -131 l0 -123 24 0 c23 0 25 5 28 48 3
43 5 47 30 50 23 3 32 -5 60 -47 26 -41 39 -51 61 -51 26 0 27 2 16 23 -7 12
-21 35 -31 50 l-20 28 26 20 c37 29 37 91 0 115 -27 18 -173 32 -186 18z m157
-64 c11 -33 -12 -50 -66 -50 l-49 0 0 35 0 35 54 0 c46 0 56 -3 61 -20z"/>
<path d="M6695 7018 c-35 -18 -45 -40 -45 -93 0 -68 26 -95 92 -95 41 0 78 20
78 43 0 11 -39 8 -60 -5 -25 -16 -54 -1 -58 31 -3 19 1 21 56 21 32 0 61 3 64
6 11 10 -11 69 -33 87 -24 19 -64 22 -94 5z m63 -30 c23 -23 13 -38 -23 -38
-38 0 -44 10 -19 34 19 19 26 20 42 4z"/>
<path d="M6977 7024 c-4 -4 -7 -49 -7 -101 0 -93 0 -93 25 -93 l26 0 -3 97
c-2 79 -6 98 -18 101 -9 1 -19 0 -23 -4z"/>
<path d="M7107 7019 c-23 -13 -47 -62 -47 -94 0 -33 24 -81 45 -89 35 -13 95
-6 115 14 11 11 20 25 20 30 0 16 -40 12 -57 -5 -36 -37 -81 17 -65 77 6 26
14 34 35 36 18 2 29 -2 33 -12 7 -19 40 -21 50 -4 4 6 -4 21 -20 35 -29 24
-78 30 -109 12z"/>
<path d="M7287 7024 c-14 -15 -7 -149 9 -172 18 -27 69 -30 96 -5 17 15 18 15
18 0 0 -11 8 -17 25 -17 l26 0 -3 98 c-3 89 -5 97 -23 97 -17 0 -21 -8 -25
-66 -5 -66 -20 -99 -46 -99 -21 0 -29 21 -34 95 -4 52 -9 71 -20 73 -9 1 -19
0 -23 -4z"/>
<path d="M7633 7006 c-25 -22 -26 -25 -10 -32 10 -3 29 -1 42 6 27 14 55 8 55
-13 0 -9 -16 -17 -42 -21 -68 -11 -94 -48 -68 -97 13 -22 68 -26 101 -6 17 10
23 10 26 0 5 -15 63 -18 63 -4 0 5 -7 14 -15 21 -10 8 -15 31 -15 71 0 46 -5
64 -20 79 -28 28 -82 26 -117 -4z m87 -105 c0 -24 -25 -45 -45 -37 -15 5 -21
37 -8 49 3 4 17 7 30 7 16 0 23 -6 23 -19z"/>
<path d="M8223 7006 c-25 -21 -28 -31 -28 -81 0 -48 4 -60 24 -76 42 -34 141
-19 141 22 0 12 -37 12 -45 -1 -12 -19 -55 -11 -64 13 -5 12 -7 25 -4 30 2 4
31 7 65 7 l61 0 -7 33 c-8 40 -48 77 -86 77 -16 0 -41 -11 -57 -24z m81 -22
c25 -24 19 -34 -19 -34 -28 0 -35 4 -35 19 0 17 11 28 32 30 4 1 14 -6 22 -15z"/>
<path d="M8431 7004 c-27 -22 -31 -32 -31 -74 0 -70 27 -100 89 -100 48 0 81
20 81 48 0 17 -35 15 -50 -3 -31 -38 -70 -6 -70 57 0 53 41 78 70 43 16 -19
50 -20 50 -1 0 22 -49 56 -81 56 -15 0 -41 -12 -58 -26z"/>
<path d="M8641 7004 c-27 -22 -31 -32 -31 -75 0 -68 30 -99 95 -99 63 0 95 31
95 94 0 59 -7 74 -41 91 -42 22 -83 18 -118 -11z m97 -26 c15 -15 16 -72 2
-99 -6 -11 -21 -19 -35 -19 -29 0 -45 26 -45 72 0 39 15 58 45 58 12 0 26 -5
33 -12z"/>
<path d="M8850 6930 l0 -100 25 0 c24 0 25 2 25 64 0 77 6 96 30 96 24 0 30
-19 30 -96 0 -62 1 -64 25 -64 24 0 25 2 25 63 0 74 18 109 47 91 14 -9 19
-26 21 -83 3 -68 4 -71 27 -71 24 0 25 2 25 71 0 68 -11 106 -34 121 -20 14
-53 8 -71 -12 l-18 -20 -14 20 c-17 24 -55 26 -73 5 -12 -14 -15 -14 -30 0
-34 31 -40 19 -40 -85z"/>
<path d="M9199 7001 c-23 -24 -29 -38 -29 -74 0 -67 28 -97 89 -97 44 0 81 20
81 43 0 11 -48 8 -55 -3 -11 -17 -44 -11 -55 10 -17 32 -4 40 62 40 l61 0 -7
33 c-14 74 -94 100 -147 48z m85 -17 c25 -24 19 -34 -18 -34 -41 0 -52 12 -30
34 19 20 29 20 48 0z"/>
<path d="M9390 6930 l0 -100 25 0 c24 0 25 3 25 61 0 69 12 99 41 99 25 0 39
-36 39 -106 0 -52 1 -54 26 -54 l26 0 -3 79 c-3 60 -9 84 -23 100 -22 25 -53
27 -83 6 -19 -13 -22 -13 -27 0 -3 8 -15 15 -26 15 -19 0 -20 -6 -20 -100z"/>
<path d="M9866 7009 c-14 -11 -26 -25 -26 -30 0 -13 37 -11 59 3 22 14 51 4
51 -17 0 -9 -9 -15 -24 -15 -72 0 -112 -43 -87 -96 8 -19 18 -24 50 -24 23 0
44 6 52 16 11 14 13 14 21 0 9 -17 68 -23 68 -7 0 5 -7 14 -15 21 -10 8 -15
31 -15 71 0 47 -4 62 -22 79 -28 26 -78 26 -112 -1z m84 -107 c0 -23 -19 -42
-41 -42 -21 0 -29 19 -17 43 12 23 58 23 58 -1z"/>
<path d="M10315 7018 c-21 -12 -35 -28 -35 -40 0 -12 38 -9 59 4 22 13 51 5
51 -15 0 -10 -17 -17 -50 -21 -34 -5 -53 -13 -60 -26 -14 -25 -13 -63 2 -78
17 -17 83 -15 99 4 11 14 13 14 21 0 10 -18 53 -22 63 -6 3 6 -1 13 -9 16 -12
5 -16 21 -16 69 0 57 -3 66 -26 84 -29 23 -68 27 -99 9z m72 -114 c5 -15 -24
-44 -43 -44 -21 0 -29 27 -13 46 14 17 50 15 56 -2z"/>
<path d="M6573 6353 c-7 -2 -13 -11 -13 -19 0 -12 4 -12 20 -4 32 17 26 37 -7
23z"/>
<path d="M6860 6270 c0 -73 3 -90 15 -90 12 0 15 17 15 90 0 73 -3 90 -15 90
-12 0 -15 -17 -15 -90z"/>
<path d="M8776 6353 c-3 -3 -6 -44 -6 -90 0 -67 3 -83 15 -83 12 0 15 16 15
84 0 78 -7 105 -24 89z"/>
<path d="M9500 6271 c0 -54 4 -91 10 -91 6 0 10 35 10 84 0 47 -4 88 -10 91
-6 4 -10 -27 -10 -84z"/>
<path d="M9820 6350 c0 -5 5 -10 11 -10 5 0 7 5 4 10 -3 6 -8 10 -11 10 -2 0
-4 -4 -4 -10z"/>
<path d="M6390 6335 c0 -9 9 -15 25 -15 24 0 25 -2 25 -70 0 -63 2 -70 20 -70
18 0 20 7 20 69 0 64 2 70 22 73 12 2 23 9 26 16 3 9 -15 12 -67 12 -56 0 -71
-3 -71 -15z"/>
<path d="M7240 6265 l0 -85 56 0 c34 0 53 4 49 10 -3 6 -24 10 -46 10 l-39 0
0 75 c0 43 -4 75 -10 75 -6 0 -10 -35 -10 -85z"/>
<path d="M7620 6343 c-27 -10 -40 -36 -40 -80 0 -57 25 -83 81 -83 56 0 79 14
79 50 0 28 -3 30 -35 30 -19 0 -35 -4 -35 -10 0 -5 11 -10 25 -10 27 0 30 -6
16 -29 -14 -22 -80 -19 -97 4 -19 25 -18 80 2 99 18 19 75 21 92 4 6 -6 14 -9
17 -6 3 3 -1 13 -10 22 -16 15 -64 20 -95 9z"/>
<path d="M8510 6325 c0 -22 -3 -24 -28 -19 -36 7 -62 -17 -62 -57 0 -54 15
-69 65 -67 l45 1 0 84 c0 49 -4 83 -10 83 -5 0 -10 -11 -10 -25z m-4 -61 c8
-31 -10 -74 -30 -74 -22 0 -38 37 -31 71 9 39 51 42 61 3z"/>
<path d="M9185 6325 c-31 -30 -33 -82 -4 -119 16 -20 29 -26 60 -26 56 0 79
15 79 50 0 28 -3 30 -35 30 -19 0 -35 -4 -35 -10 0 -5 12 -10 26 -10 35 0 29
-30 -9 -43 -56 -18 -102 44 -75 101 15 30 68 43 94 21 8 -6 18 -9 22 -5 12 13
-30 36 -65 36 -23 0 -42 -8 -58 -25z"/>
<path d="M10280 6281 c0 -80 13 -101 64 -101 51 0 68 19 74 83 2 31 1 64 -4
74 -5 12 -10 -4 -14 -51 -5 -50 -12 -73 -25 -82 -47 -35 -75 -4 -75 82 0 36
-4 64 -10 64 -6 0 -10 -30 -10 -69z"/>
<path d="M10807 6343 c-4 -3 -7 -42 -7 -85 0 -64 3 -78 16 -78 13 0 15 11 13
60 -1 33 0 62 2 64 3 3 22 -24 44 -60 54 -88 65 -85 65 23 0 98 -17 105 -22 9
l-3 -58 -42 66 c-41 64 -52 74 -66 59z"/>
<path d="M6628 6324 c-11 -11 -15 -28 -11 -58 8 -78 12 -86 38 -86 14 0 25 5
25 10 0 6 -4 10 -10 10 -15 0 -12 87 3 94 10 5 10 7 0 12 -7 3 -13 12 -13 20
0 18 -12 18 -32 -2z"/>
<path d="M6557 6304 c-4 -4 -7 -34 -7 -66 0 -52 2 -58 20 -58 19 0 21 5 18 62
-3 57 -14 79 -31 62z"/>
<path d="M6707 6304 c-11 -11 -8 -83 3 -104 8 -15 21 -19 60 -18 l50 1 0 64
c0 49 -3 63 -15 63 -11 0 -15 -12 -15 -44 0 -27 -6 -48 -15 -56 -22 -18 -33
-3 -37 49 -3 42 -16 60 -31 45z"/>
<path d="M6940 6290 c-43 -43 -14 -110 48 -110 40 0 62 23 62 64 0 60 -68 88
-110 46z m69 -22 c11 -30 -2 -63 -24 -63 -10 0 -21 9 -25 20 -10 26 5 65 25
65 9 0 19 -10 24 -22z"/>
<path d="M7380 6295 c-12 -14 -8 -15 28 -9 34 5 42 4 42 -9 0 -9 -13 -17 -34
-21 -43 -8 -64 -31 -49 -54 7 -12 26 -17 67 -18 39 -1 54 2 46 10 -5 5 -10 28
-10 51 0 23 -5 46 -12 53 -17 17 -63 15 -78 -3z m68 -71 c-5 -25 -35 -41 -49
-27 -18 18 -3 43 26 43 19 0 26 -5 23 -16z"/>
<path d="M7778 6304 c-13 -13 -9 -101 5 -112 7 -6 32 -10 55 -9 l42 1 0 58 c0
31 -4 60 -10 63 -6 4 -10 -8 -10 -29 0 -46 -16 -86 -34 -86 -21 0 -27 14 -35
72 -3 27 -9 46 -13 42z"/>
<path d="M7926 6294 c-20 -19 -21 -87 -2 -103 20 -16 78 -10 84 9 4 12 2 13
-9 3 -19 -19 -47 -16 -59 6 -15 30 -14 31 35 31 38 0 45 3 45 19 0 27 -26 51
-55 51 -13 0 -31 -7 -39 -16z m69 -24 c0 -16 -28 -25 -50 -16 -9 3 -12 12 -9
21 8 21 59 16 59 -5z"/>
<path d="M8050 6243 c0 -35 4 -63 10 -63 6 0 10 18 10 40 0 27 7 47 20 60 26
26 26 27 -10 27 l-30 0 0 -64z"/>
<path d="M8140 6243 c0 -36 4 -63 10 -63 6 0 10 23 10 51 0 42 3 52 20 56 31
8 24 22 -10 20 -30 -2 -30 -2 -30 -64z"/>
<path d="M8231 6296 c-9 -11 -4 -13 25 -12 49 1 54 -18 8 -30 -41 -10 -61 -33
-51 -58 7 -18 62 -22 73 -5 4 8 -1 9 -16 4 -14 -5 -25 -2 -30 6 -14 21 1 39
32 39 23 0 29 -4 24 -15 -9 -24 4 -45 28 -44 11 0 15 3 9 6 -8 3 -13 23 -13
52 0 26 -5 52 -12 59 -16 16 -63 15 -77 -2z"/>
<path d="M8577 6292 c-21 -23 -22 -76 -1 -96 16 -17 79 -22 88 -7 9 15 -5 20
-24 9 -23 -15 -50 -3 -50 22 0 17 6 20 45 20 49 0 56 10 29 48 -19 27 -64 29
-87 4z m71 -19 c-2 -11 -14 -19 -31 -21 -22 -3 -27 1 -27 17 0 17 6 21 31 21
24 0 30 -4 27 -17z"/>
<path d="M8840 6295 c-10 -13 -7 -14 25 -12 49 3 57 -19 11 -27 -41 -8 -59
-32 -45 -58 11 -20 54 -24 65 -7 4 8 9 8 17 0 6 -6 18 -11 26 -11 12 0 12 3 3
12 -7 7 -12 30 -12 53 0 23 -5 46 -12 53 -17 17 -63 15 -78 -3z m70 -61 c0
-18 -24 -44 -40 -44 -15 0 -20 7 -20 25 0 21 5 25 30 25 17 0 30 -3 30 -6z"/>
<path d="M8983 6303 c-7 -2 -13 -15 -13 -27 0 -18 10 -27 41 -39 25 -10 39
-21 37 -29 -6 -18 -46 -22 -65 -6 -14 11 -15 11 -11 -2 6 -21 71 -25 87 -6 18
22 -2 52 -39 59 -19 4 -30 13 -30 23 0 13 7 16 35 11 19 -3 35 -2 35 3 0 16
-49 25 -77 13z"/>
<path d="M9370 6295 c-10 -13 -7 -14 25 -12 48 3 57 -18 11 -27 -41 -8 -60
-28 -51 -55 5 -17 14 -20 67 -18 33 1 55 3 49 5 -6 2 -11 25 -11 51 0 26 -5
52 -12 59 -17 17 -63 15 -78 -3z m70 -64 c0 -14 -30 -41 -45 -41 -15 0 -24 19
-17 38 5 14 62 17 62 3z"/>
<path d="M9564 6295 c-17 -14 -16 -14 24 -9 56 9 60 -18 5 -32 -33 -8 -38 -13
-38 -39 l0 -30 74 -2 c65 -2 76 1 91 20 l18 22 20 -25 c11 -14 23 -22 27 -18
4 4 -2 19 -14 34 -20 25 -20 29 -6 50 22 34 18 53 -6 25 l-20 -24 -24 23 c-29
27 -32 20 -9 -19 15 -26 15 -30 -1 -55 -28 -42 -49 -30 -53 29 -2 27 -9 53
-15 57 -19 12 -52 9 -73 -7z m64 -71 c-5 -25 -35 -41 -49 -27 -18 18 -3 43 26
43 19 0 26 -5 23 -16z"/>
<path d="M9820 6246 c0 -37 4 -66 10 -66 6 0 10 26 10 59 0 33 -4 63 -10 66
-6 4 -10 -18 -10 -59z"/>
<path d="M9893 6303 c-27 -10 -11 -21 22 -16 51 8 48 -22 -2 -34 -33 -8 -38
-12 -38 -38 0 -30 1 -30 56 -31 l55 -1 -7 55 c-4 30 -14 59 -21 63 -14 9 -46
10 -65 2z m55 -79 c-5 -25 -35 -41 -49 -27 -18 18 -3 43 26 43 19 0 26 -5 23
-16z"/>
<path d="M10023 6303 c-7 -2 -13 -15 -13 -27 0 -17 10 -27 40 -39 22 -8 40
-20 40 -27 0 -18 -29 -24 -57 -11 -19 9 -24 9 -21 -1 7 -19 72 -22 87 -4 19
23 7 43 -34 60 -46 20 -47 41 0 33 19 -3 35 -2 35 3 0 16 -49 25 -77 13z"/>
<path d="M10145 6300 c-3 -5 -1 -10 4 -10 6 0 11 5 11 10 0 6 -2 10 -4 10 -3
0 -8 -4 -11 -10z"/>
<path d="M10454 6301 c-2 -2 -4 -31 -4 -63 0 -44 3 -58 14 -58 11 0 16 15 18
53 3 48 5 52 28 52 23 0 25 -4 28 -52 2 -29 7 -53 13 -53 14 0 11 106 -4 118
-12 10 -83 12 -93 3z"/>
<path d="M10613 6303 c-27 -10 -11 -21 22 -16 51 8 48 -22 -2 -34 -33 -8 -38
-12 -38 -38 0 -29 1 -30 55 -31 l56 -1 -6 54 c-4 31 -12 58 -21 64 -15 9 -46
11 -66 2z m57 -82 c0 -22 -37 -38 -52 -23 -17 17 -1 42 27 42 18 0 25 -5 25
-19z"/>
<path d="M10988 6304 c-11 -11 -10 -82 2 -104 8 -15 21 -19 56 -18 l45 1 -3
61 c-4 75 -22 81 -26 8 -5 -90 -59 -81 -64 10 -2 27 -6 46 -10 42z"/>
<path d="M11136 6294 c-19 -19 -21 -74 -3 -98 16 -22 78 -19 85 4 4 12 2 13
-9 3 -19 -19 -47 -16 -59 6 -15 30 -14 31 35 31 38 0 45 3 45 19 0 27 -26 51
-55 51 -13 0 -31 -7 -39 -16z m69 -24 c0 -16 -28 -25 -50 -16 -9 3 -12 12 -9
21 8 21 59 16 59 -5z"/>
<path d="M11250 6301 c0 -25 44 -121 56 -121 14 0 57 106 51 124 -3 6 -15 -14
-29 -44 l-25 -55 -17 53 c-10 28 -22 52 -27 52 -5 0 -9 -4 -9 -9z"/>
<path d="M11403 6303 c-27 -10 -11 -21 22 -16 28 4 35 2 35 -10 0 -10 -12 -18
-34 -23 -37 -6 -50 -25 -41 -55 5 -15 17 -18 68 -17 34 1 56 3 50 5 -8 3 -13
23 -13 53 0 39 -4 52 -19 60 -21 10 -47 12 -68 3z m57 -82 c0 -22 -37 -38 -52
-23 -17 17 -1 42 27 42 18 0 25 -5 25 -19z"/>
<path d="M7090 6285 c0 -8 7 -15 15 -15 8 0 15 7 15 15 0 8 -7 15 -15 15 -8 0
-15 -7 -15 -15z"/>
<path d="M7090 6195 c0 -8 7 -15 15 -15 8 0 15 7 15 15 0 8 -7 15 -15 15 -8 0
-15 -7 -15 -15z"/>
<path d="M10140 6190 c0 -5 5 -10 10 -10 6 0 10 5 10 10 0 6 -4 10 -10 10 -5
0 -10 -4 -10 -10z"/>
<path d="M6413 5974 c-9 -4 -13 -32 -13 -90 l0 -84 64 0 c82 0 97 18 19 22
-54 3 -58 5 -58 28 0 23 4 25 48 28 26 2 47 7 47 12 0 5 -21 10 -47 12 -41 3
-48 6 -51 25 -3 20 2 22 48 25 27 2 51 8 53 13 2 11 -89 18 -110 9z"/>
<path d="M6578 5929 c-32 -18 -22 -48 22 -65 23 -9 39 -22 37 -28 -5 -16 -46
-20 -63 -6 -7 7 -14 8 -14 3 0 -17 24 -33 50 -33 61 0 68 54 10 77 -22 9 -40
20 -40 25 0 15 32 21 51 9 15 -9 19 -8 19 3 0 24 -42 33 -72 15z"/>
<path d="M6718 5933 l-28 -4 0 -90 c0 -53 4 -89 10 -89 6 0 10 14 10 30 0 28
2 30 25 24 37 -9 65 19 65 66 0 36 -24 72 -46 69 -5 -1 -21 -4 -36 -6z m51
-27 c16 -20 10 -66 -10 -79 -27 -17 -49 -1 -49 36 0 50 33 74 59 43z"/>
<path d="M6858 5933 c-22 -6 -41 -54 -32 -87 10 -42 68 -62 93 -32 9 11 4 13
-26 12 -28 -1 -38 3 -41 16 -3 13 6 17 40 20 50 4 61 25 29 57 -21 21 -30 23
-63 14z m50 -35 c3 -14 -3 -18 -27 -18 -29 0 -41 17 -24 34 13 13 48 1 51 -16z"/>
<path d="M7005 5931 c-3 -6 -12 -8 -20 -4 -12 4 -15 -7 -15 -62 0 -41 4 -64
10 -60 6 3 10 26 10 50 0 33 5 47 21 58 12 9 16 18 10 21 -5 4 -12 2 -16 -3z"/>
<path d="M7078 5933 c-10 -2 -18 -11 -18 -19 0 -11 4 -12 19 -3 20 13 51 6 51
-11 0 -11 -7 -14 -53 -25 -25 -5 -28 -10 -25 -38 2 -25 8 -33 26 -35 13 -2 30
2 39 10 13 10 17 10 20 1 5 -15 33 -18 33 -4 0 6 -4 13 -10 16 -5 3 -10 26
-10 50 0 34 -5 47 -19 55 -20 10 -25 11 -53 3z m47 -73 c9 -15 -14 -40 -36
-40 -22 0 -27 35 -6 43 21 9 36 8 42 -3z"/>
<path d="M7231 5931 c-8 -5 -20 -7 -28 -4 -10 4 -13 -10 -13 -61 0 -37 4 -66
10 -66 6 0 10 22 10 49 0 51 18 78 44 68 10 -4 16 -24 18 -59 4 -62 22 -71 26
-13 4 66 -30 110 -67 86z"/>
<path d="M7474 5926 c-25 -18 -12 -31 14 -15 16 10 23 10 36 0 21 -18 11 -31
-23 -31 -49 0 -68 -49 -29 -74 13 -8 23 -8 39 2 16 10 24 11 35 1 21 -17 22
-11 14 50 -9 73 -42 98 -86 67z m59 -62 c11 -12 -13 -44 -33 -44 -25 0 -35 17
-20 35 13 15 42 20 53 9z"/>
<path d="M7345 5923 c45 -10 46 -12 10 -61 -19 -27 -32 -52 -28 -55 10 -11 93
-8 93 3 0 6 -13 10 -30 10 -37 0 -37 7 0 56 16 21 30 42 30 47 0 4 -21 6 -47
6 -27 -1 -39 -3 -28 -6z"/>
<path d="M7316 5603 c-3 -3 -6 -44 -6 -90 0 -67 3 -83 15 -83 9 0 15 9 15 25
0 14 4 25 10 25 5 0 17 -11 26 -25 9 -14 23 -25 31 -25 10 0 6 10 -13 35 l-27
36 23 24 c13 14 20 28 16 32 -4 5 -21 -7 -37 -25 l-29 -32 0 49 c0 47 -9 68
-24 54z"/>
<path d="M7820 5521 c0 -54 4 -91 10 -91 6 0 10 11 10 25 0 14 4 25 8 25 5 0
19 -11 32 -25 35 -38 46 -30 15 11 l-27 35 21 23 c35 37 23 42 -14 6 l-35 -34
0 51 c0 29 -4 55 -10 58 -6 4 -10 -27 -10 -84z"/>
<path d="M8390 5521 c0 -54 4 -91 10 -91 6 0 10 35 10 84 0 47 -4 88 -10 91
-6 4 -10 -27 -10 -84z"/>
<path d="M8448 5604 c-12 -11 -10 -174 2 -174 6 0 10 9 10 19 0 33 22 36 42 8
11 -15 26 -27 35 -27 11 0 8 8 -11 31 -30 35 -32 51 -11 69 8 7 15 17 15 23 0
6 -13 -1 -28 -16 -15 -15 -31 -27 -35 -27 -3 0 -7 23 -9 51 -2 28 -6 47 -10
43z"/>
<path d="M9335 5600 c-3 -5 -1 -10 4 -10 6 0 11 5 11 10 0 6 -2 10 -4 10 -3 0
-8 -4 -11 -10z"/>
<path d="M10455 5600 c-3 -5 -1 -10 4 -10 6 0 11 5 11 10 0 6 -2 10 -4 10 -3
0 -8 -4 -11 -10z"/>
<path d="M10650 5600 c0 -5 5 -10 11 -10 5 0 7 5 4 10 -3 6 -8 10 -11 10 -2 0
-4 -4 -4 -10z"/>
<path d="M11947 5603 c-4 -3 -7 -17 -7 -29 0 -20 -4 -23 -28 -18 -36 7 -62
-17 -62 -57 0 -54 15 -69 65 -67 l45 1 0 89 c0 88 -1 94 -13 81z m-9 -101 c6
-58 -39 -86 -58 -36 -6 14 -7 37 -4 50 5 20 12 24 33 22 21 -2 27 -9 29 -36z"/>
<path d="M12000 5600 c0 -5 5 -10 11 -10 5 0 7 5 4 10 -3 6 -8 10 -11 10 -2 0
-4 -4 -4 -10z"/>
<path d="M6427 5533 c-14 -37 -29 -76 -33 -85 -4 -13 -1 -18 14 -18 11 0 22 8
25 20 4 15 14 20 40 20 26 0 36 -5 40 -20 5 -20 37 -29 37 -11 0 5 -13 43 -29
83 -40 100 -59 102 -94 11z m63 -14 c0 -13 -7 -19 -21 -19 -15 0 -19 4 -15 16
3 9 6 23 6 31 0 13 3 13 15 3 8 -7 15 -21 15 -31z"/>
<path d="M6600 5583 c0 -11 3 -13 13 -5 16 13 42 -1 32 -17 -4 -8 -18 -10 -36
-6 l-29 7 0 -66 c0 -52 3 -66 15 -66 11 0 15 11 15 39 0 40 23 76 41 66 5 -4
9 -28 9 -56 0 -42 3 -49 20 -49 18 0 20 7 20 55 0 44 -4 57 -20 67 -17 11 -18
14 -4 29 14 15 11 17 -31 17 -35 1 -45 -2 -45 -15z"/>
<path d="M7040 5515 l0 -85 56 0 c34 0 53 4 49 10 -3 6 -24 10 -46 10 l-39 0
0 75 c0 43 -4 75 -10 75 -6 0 -10 -35 -10 -85z"/>
<path d="M7666 5584 c-32 -31 -12 -61 53 -79 25 -8 37 -17 39 -32 4 -30 -39
-41 -73 -19 -30 20 -35 20 -35 2 0 -18 22 -26 69 -26 37 0 71 23 71 47 0 16
-33 41 -65 49 -39 9 -55 22 -48 40 6 16 68 19 78 4 4 -6 11 -7 17 -4 18 11
-22 34 -58 34 -18 0 -40 -7 -48 -16z"/>
<path d="M11630 5591 c0 -6 7 -11 15 -11 12 0 15 -13 15 -59 0 -68 -17 -93
-44 -65 -19 19 -31 13 -22 -11 4 -11 16 -15 38 -13 42 4 59 36 56 108 -3 52
-5 55 -30 58 -16 2 -28 -1 -28 -7z"/>
<path d="M6747 5542 c-19 -21 -22 -64 -7 -93 16 -28 84 -27 104 3 9 12 16 33
16 45 0 53 -78 84 -113 45z m67 -18 c11 -28 6 -65 -9 -70 -21 -8 -45 14 -45
40 0 39 42 63 54 30z"/>
<path d="M7182 5498 l3 -63 48 -1 47 -2 0 58 c0 33 -4 62 -10 65 -6 4 -10 -13
-10 -43 0 -52 -17 -79 -45 -68 -11 4 -15 20 -15 55 0 27 -5 53 -11 56 -7 5 -9
-14 -7 -57z"/>
<path d="M7449 5544 c-17 -21 -17 -78 1 -99 16 -19 81 -17 88 3 3 11 0 12 -17
2 -28 -15 -61 -4 -61 21 0 16 7 19 45 19 37 0 45 3 45 18 0 44 -73 70 -101 36z
m71 -24 c0 -15 -7 -20 -24 -20 -14 0 -28 5 -31 10 -10 16 4 30 31 30 17 0 24
-5 24 -20z"/>
<path d="M7935 5538 c4 -13 16 -43 26 -67 l19 -44 -22 -24 c-17 -18 -18 -23
-6 -23 22 0 32 15 63 93 15 37 30 67 34 67 3 0 13 -24 21 -52 16 -54 41 -72
49 -33 2 11 8 31 14 45 9 24 10 23 21 -20 17 -66 38 -63 57 10 9 33 12 63 8
66 -8 4 -29 -57 -29 -84 0 -27 -18 -1 -29 43 -6 25 -16 45 -21 45 -6 0 -15
-20 -22 -45 -7 -25 -15 -45 -18 -45 -3 0 -11 20 -18 45 -10 38 -15 44 -34 42
-17 -3 -27 -16 -38 -45 -8 -23 -18 -42 -21 -42 -4 0 -15 20 -25 45 -17 45 -41
64 -29 23z"/>
<path d="M8263 5553 c-27 -10 -11 -21 22 -16 51 8 48 -22 -2 -34 -33 -8 -38
-12 -38 -38 0 -29 1 -30 55 -31 l56 -1 -6 54 c-4 31 -12 58 -21 64 -15 9 -46
11 -66 2z m57 -82 c0 -22 -37 -38 -52 -23 -17 17 -1 42 27 42 18 0 25 -5 25
-19z"/>
<path d="M8577 5542 c-21 -23 -22 -76 -1 -96 16 -17 79 -22 88 -7 9 15 -5 20
-24 9 -23 -15 -50 -3 -50 22 0 17 6 20 45 20 49 0 56 10 29 48 -19 27 -64 29
-87 4z m71 -19 c-2 -11 -14 -19 -31 -21 -22 -3 -27 1 -27 17 0 17 6 21 31 21
24 0 30 -4 27 -17z"/>
<path d="M8704 5551 c-2 -2 -4 -31 -4 -63 0 -45 3 -58 15 -58 11 0 15 12 15
50 0 36 4 52 15 56 24 10 17 22 -11 20 -14 0 -28 -3 -30 -5z"/>
<path d="M8866 5538 c-21 -29 -20 -72 0 -93 23 -23 78 -16 83 10 3 19 3 19
-16 3 -27 -25 -42 -22 -54 9 -19 51 24 96 59 61 9 -9 12 -8 12 4 0 34 -62 38
-84 6z"/>
<path d="M8996 5544 c-18 -18 -21 -66 -6 -95 12 -22 68 -27 88 -7 7 7 12 31
12 55 0 32 -5 45 -19 53 -28 14 -57 12 -75 -6z m69 -48 c0 -46 -23 -68 -49
-47 -16 14 -22 72 -9 85 4 4 19 6 33 4 22 -3 25 -8 25 -42z"/>
<path d="M9124 5551 c-9 -9 -3 -121 6 -121 6 0 10 19 10 43 0 51 11 70 36 65
15 -2 20 -14 22 -56 4 -67 20 -67 24 1 3 45 6 52 26 55 21 3 22 0 22 -52 0
-45 3 -56 16 -56 14 0 16 9 12 55 -6 69 -18 83 -58 68 -17 -7 -32 -7 -36 -2
-5 9 -71 9 -80 0z"/>
<path d="M9330 5495 c0 -37 4 -65 10 -65 6 0 10 28 10 65 0 37 -4 65 -10 65
-6 0 -10 -28 -10 -65z"/>
<path d="M9396 5538 c-34 -48 -13 -108 37 -108 37 0 65 14 49 24 -6 3 -13 2
-17 -4 -10 -17 -44 -11 -55 9 -15 30 -14 31 41 31 48 0 50 1 44 23 -15 49 -72
63 -99 25z m69 -18 c0 -23 -49 -20 -53 3 -3 15 2 18 25 15 17 -2 28 -9 28 -18z"/>
<path d="M9524 5551 c-2 -2 -4 -31 -4 -63 0 -44 3 -58 14 -58 11 0 16 15 18
52 2 42 7 54 22 56 25 5 36 -14 36 -65 0 -24 5 -43 10 -43 15 0 12 106 -3 118
-12 10 -83 12 -93 3z"/>
<path d="M9665 5550 c-4 -6 7 -10 24 -10 38 0 38 -5 1 -54 -17 -22 -30 -43
-30 -48 0 -4 24 -7 53 -6 43 1 45 2 15 5 -21 2 -38 8 -38 12 0 5 15 28 34 52
19 23 32 47 30 51 -7 12 -82 10 -89 -2z"/>
<path d="M9801 5546 c-9 -11 -4 -13 25 -12 48 1 55 -20 10 -28 -40 -8 -59 -32
-45 -57 7 -14 21 -17 64 -16 36 1 52 4 45 11 -6 6 -10 28 -10 51 0 23 -5 46
-12 53 -16 16 -63 15 -77 -2z m69 -62 c0 -18 -24 -44 -40 -44 -15 0 -20 7 -20
25 0 21 5 25 30 25 17 0 30 -3 30 -6z"/>
<path d="M10012 5551 c-25 -16 -10 -54 26 -63 34 -9 43 -34 16 -45 -9 -3 -26
-1 -36 6 -16 10 -19 10 -16 -1 7 -19 72 -22 87 -4 18 22 -2 52 -39 59 -19 4
-30 13 -30 23 0 13 7 16 35 11 35 -6 48 6 19 17 -22 8 -47 7 -62 -3z"/>
<path d="M10128 5554 c-13 -13 -9 -101 5 -112 7 -6 32 -10 55 -9 l42 1 0 58
c0 31 -4 60 -10 63 -6 4 -10 -8 -10 -29 0 -46 -16 -86 -34 -86 -21 0 -27 14
-35 72 -3 27 -9 46 -13 42z"/>
<path d="M10321 5550 c2 -34 37 -115 51 -118 10 -2 22 16 36 56 12 33 22 63
22 68 0 19 -26 -19 -35 -52 -13 -47 -27 -47 -40 -2 -11 40 -36 74 -34 48z"/>
<path d="M10456 5553 c-3 -3 -6 -33 -6 -65 0 -45 3 -58 15 -58 12 0 15 13 15
59 0 56 -9 79 -24 64z"/>
<path d="M10524 5545 c-17 -14 -16 -14 24 -9 34 5 42 4 42 -9 0 -9 -13 -17
-35 -21 -39 -8 -58 -33 -44 -58 7 -12 23 -16 64 -15 36 1 52 4 45 11 -6 6 -10
28 -10 51 0 23 -5 46 -12 53 -16 16 -50 15 -74 -3z m64 -71 c-5 -25 -35 -41
-49 -27 -18 18 -3 43 26 43 19 0 26 -5 23 -16z"/>
<path d="M10650 5484 c0 -50 -5 -85 -12 -93 -11 -10 -9 -12 7 -9 18 3 20 12
23 82 2 46 -2 84 -8 90 -7 7 -10 -14 -10 -70z"/>
<path d="M10716 5544 c-19 -19 -21 -74 -3 -98 16 -22 78 -19 85 4 4 12 2 13
-9 3 -19 -19 -47 -16 -59 6 -15 30 -14 31 35 31 41 0 45 2 45 25 0 41 -63 61
-94 29z m69 -24 c0 -16 -28 -25 -50 -16 -9 3 -12 12 -9 21 8 21 59 16 59 -5z"/>
<path d="M10926 5544 c-20 -19 -21 -87 -2 -103 23 -19 80 -10 85 14 3 19 3 19
-16 3 -27 -24 -41 -22 -54 6 -17 37 -4 76 25 76 14 0 26 -6 29 -12 2 -7 8 -10
12 -6 13 12 -15 38 -41 38 -12 0 -30 -7 -38 -16z"/>
<path d="M11049 5544 c-7 -9 -13 -31 -13 -49 0 -42 19 -65 55 -65 37 0 59 24
59 65 0 18 -7 41 -16 49 -20 21 -68 20 -85 0z m77 -30 c8 -29 -10 -74 -28 -74
-31 1 -42 22 -39 78 1 18 7 22 31 22 23 0 31 -5 36 -26z"/>
<path d="M11180 5493 c0 -76 18 -84 22 -10 3 45 6 52 26 55 21 3 22 0 22 -52
0 -31 5 -56 10 -56 6 0 10 15 10 33 0 56 10 78 34 75 18 -3 21 -11 24 -55 4
-73 22 -67 22 7 0 40 -4 61 -12 62 -7 1 -46 2 -85 2 l-73 1 0 -62z"/>
<path d="M11396 5538 c-18 -26 -20 -61 -6 -89 15 -28 74 -26 94 3 33 46 7 108
-44 108 -18 0 -34 -8 -44 -22z m72 -27 c6 -40 -7 -71 -28 -71 -26 0 -45 40
-36 75 5 21 12 26 34 23 20 -2 28 -9 30 -27z"/>
<path d="M11738 5550 c-25 -15 -33 -66 -14 -95 12 -19 25 -25 51 -25 18 0 37
5 40 11 11 17 -2 21 -23 8 -17 -10 -23 -10 -36 0 -30 25 -19 41 29 41 37 0 45
3 45 18 0 40 -53 64 -92 42z m62 -30 c0 -16 -7 -20 -30 -20 -18 0 -30 5 -30
13 0 20 10 27 37 27 16 0 23 -6 23 -20z"/>
<path d="M12000 5496 c0 -37 4 -66 10 -66 6 0 10 26 10 59 0 33 -4 63 -10 66
-6 4 -10 -18 -10 -59z"/>
<path d="M12124 5551 c-2 -2 -4 -42 -4 -88 0 -67 3 -83 15 -83 10 0 15 10 15
28 0 26 3 28 28 24 36 -5 56 19 55 64 -1 49 -18 65 -65 62 -22 -2 -41 -5 -44
-7z m84 -40 c7 -43 -7 -73 -31 -69 -17 2 -23 11 -25 36 -5 47 4 64 30 60 15
-2 24 -11 26 -27z"/>
<path d="M12274 5545 c-17 -14 -16 -14 24 -9 34 5 42 4 42 -9 0 -9 -13 -17
-35 -21 -39 -8 -58 -33 -44 -58 7 -12 23 -16 64 -15 36 1 52 4 45 11 -6 6 -10
28 -10 51 0 23 -5 46 -12 53 -16 16 -50 15 -74 -3z m64 -71 c-5 -25 -35 -41
-49 -27 -18 18 -3 43 26 43 19 0 26 -5 23 -16z"/>
<path d="M12400 5493 c0 -35 4 -63 10 -63 6 0 10 18 10 40 0 27 7 47 20 60 26
26 26 27 -10 27 l-30 0 0 -64z"/>
<path d="M12503 5553 c-27 -10 -11 -21 22 -16 50 8 48 -20 -2 -33 -33 -8 -38
-13 -38 -39 0 -30 1 -30 56 -31 l55 -1 -7 55 c-4 30 -14 59 -21 63 -14 9 -46
10 -65 2z m55 -79 c-5 -25 -35 -41 -49 -27 -18 18 -3 43 26 43 19 0 26 -5 23
-16z"/>
<path d="M6893 5538 c2 -7 10 -13 17 -13 7 0 15 6 18 13 2 7 -5 12 -18 12 -13
0 -20 -5 -17 -12z"/>
<path d="M6897 5454 c-13 -13 -7 -24 14 -24 11 0 19 5 17 12 -5 14 -22 21 -31
12z"/>
<path d="M6660 5140 c0 -53 4 -90 10 -90 6 0 10 37 10 90 0 53 -4 90 -10 90
-6 0 -10 -37 -10 -90z"/>
<path d="M7340 5146 c0 -47 5 -88 10 -91 6 -4 10 27 10 84 0 54 -4 91 -10 91
-6 0 -10 -35 -10 -84z"/>
<path d="M7890 5139 c0 -57 4 -88 10 -84 6 3 10 44 10 91 0 49 -4 84 -10 84
-6 0 -10 -37 -10 -91z"/>
<path d="M8550 5204 c0 -21 -4 -24 -20 -19 -51 16 -89 -59 -56 -111 14 -21 23
-24 54 -21 20 1 38 6 40 10 7 21 1 167 -8 167 -5 0 -10 -12 -10 -26z m-5 -84
c0 -41 -2 -45 -25 -45 -21 0 -26 5 -28 33 -5 47 4 64 30 60 20 -3 23 -9 23
-48z"/>
<path d="M8750 5139 c0 -57 4 -88 10 -84 6 3 10 44 10 91 0 49 -4 84 -10 84
-6 0 -10 -37 -10 -91z"/>
<path d="M8880 5135 c0 -50 4 -85 10 -85 6 0 10 35 10 85 0 50 -4 85 -10 85
-6 0 -10 -35 -10 -85z"/>
<path d="M6418 5183 c-11 -3 -18 -14 -18 -29 0 -18 9 -28 36 -41 47 -23 44
-39 -7 -36 -34 2 -39 0 -29 -13 23 -27 100 -8 100 25 0 14 -36 41 -54 41 -18
0 -33 26 -22 37 4 4 20 2 36 -4 33 -12 41 0 11 17 -20 10 -25 11 -53 3z"/>
<path d="M6544 5176 c-10 -8 -15 -18 -11 -22 4 -5 12 -2 16 5 11 18 45 10 49
-12 3 -13 -3 -17 -26 -17 -50 0 -70 -49 -30 -74 13 -8 23 -8 39 2 16 10 24 11
35 1 21 -17 23 -10 13 51 -11 73 -42 97 -85 66z m54 -78 c-3 -25 -34 -36 -51
-19 -14 14 9 41 35 41 14 0 19 -6 16 -22z"/>
<path d="M6868 5183 c-10 -2 -18 -11 -18 -19 0 -12 4 -12 21 -4 25 14 49 6 49
-15 0 -10 -10 -15 -29 -15 -34 0 -54 -20 -49 -52 3 -25 42 -38 61 -19 7 7 16
7 29 0 23 -13 37 -4 20 13 -7 7 -12 31 -12 55 0 32 -5 45 -19 53 -20 10 -25
11 -53 3z m52 -76 c0 -19 -21 -37 -42 -37 -21 0 -25 35 -5 43 23 10 47 7 47
-6z"/>
<path d="M7028 5184 c-4 -3 -14 -7 -25 -8 -14 -2 -19 -13 -21 -51 -5 -71 10
-92 19 -27 4 34 14 58 25 67 11 7 16 16 13 19 -3 3 -8 3 -11 0z"/>
<path d="M7154 5176 c-10 -8 -16 -18 -11 -22 4 -4 13 -2 19 4 19 19 48 14 48
-8 0 -15 -7 -20 -29 -20 -49 0 -68 -49 -29 -74 13 -8 23 -7 39 2 15 10 24 11
32 3 20 -20 24 -11 19 42 -7 78 -41 107 -88 73z m54 -78 c-3 -25 -34 -36 -51
-19 -14 14 9 41 35 41 14 0 19 -6 16 -22z"/>
<path d="M7414 5176 c-24 -18 -13 -31 14 -15 22 14 56 5 50 -14 -3 -6 -19 -13
-36 -15 -39 -4 -58 -32 -42 -62 11 -21 54 -27 66 -9 4 8 9 8 17 0 20 -20 24
-11 19 47 -6 76 -40 103 -88 68z m61 -66 c9 -15 -14 -40 -36 -40 -27 0 -35 21
-14 37 22 16 41 17 50 3z"/>
<path d="M7621 5171 c-46 -46 -13 -131 44 -117 22 6 26 4 23 -11 -3 -14 -12
-17 -42 -16 -33 2 -36 1 -26 -12 16 -20 54 -19 74 1 12 11 16 36 16 90 0 66
-2 74 -19 74 -11 0 -26 3 -34 6 -9 3 -25 -4 -36 -15z m57 -13 c26 -26 8 -88
-25 -88 -23 0 -38 46 -25 75 13 27 31 32 50 13z"/>
<path d="M7764 5176 c-10 -8 -16 -18 -12 -22 4 -4 14 -1 23 6 18 15 45 6 45
-15 0 -10 -10 -15 -29 -15 -49 0 -68 -49 -29 -74 13 -8 23 -7 39 2 15 10 24
11 32 3 20 -20 24 -11 20 42 -7 74 -44 105 -89 73z m59 -62 c11 -12 -13 -44
-33 -44 -25 0 -35 17 -20 35 13 15 42 20 53 9z"/>
<path d="M7968 5183 c-10 -2 -18 -11 -18 -19 0 -12 4 -12 21 -4 25 14 49 6 49
-15 0 -10 -10 -15 -29 -15 -34 0 -54 -20 -49 -52 3 -25 42 -38 61 -19 7 7 16
7 29 0 23 -13 37 -4 20 13 -7 7 -12 31 -12 55 0 32 -5 45 -19 53 -20 10 -25
11 -53 3z m52 -76 c0 -19 -21 -37 -42 -37 -21 0 -25 35 -5 43 23 10 47 7 47
-6z"/>
<path d="M8283 5183 c-7 -2 -13 -11 -13 -19 0 -11 4 -12 19 -3 20 13 51 6 51
-11 0 -11 -7 -14 -51 -24 -32 -7 -43 -30 -29 -57 12 -22 49 -25 69 -6 11 10
14 10 18 0 3 -7 12 -13 21 -13 12 0 13 3 4 12 -7 7 -12 33 -12 60 0 37 -4 50
-19 58 -21 11 -38 12 -58 3z m52 -73 c9 -15 -14 -40 -36 -40 -22 0 -27 35 -6
43 21 9 36 8 42 -3z"/>
<path d="M8620 5170 c-40 -40 -14 -120 39 -120 16 0 34 6 40 14 9 11 4 13 -26
12 -28 -1 -38 3 -41 16 -3 13 6 17 40 20 39 3 43 5 40 28 -5 48 -57 65 -92 30z
m68 -22 c3 -14 -3 -18 -27 -18 -29 0 -41 17 -24 34 13 13 48 1 51 -16z"/>
<path d="M8985 5180 c-4 -6 -15 -8 -26 -5 -17 6 -19 1 -19 -54 0 -33 5 -63 10
-66 6 -4 10 11 10 37 0 51 19 84 44 75 12 -5 16 -20 16 -62 0 -30 5 -55 10
-55 6 0 10 21 10 48 0 59 13 81 37 66 13 -8 19 -26 21 -63 3 -58 22 -61 22 -3
0 76 -21 103 -62 81 -14 -8 -23 -8 -31 0 -14 14 -34 14 -42 1z"/>
<path d="M9178 5183 l-28 -4 0 -90 c0 -53 4 -89 10 -89 6 0 10 13 10 30 0 27
2 29 29 24 34 -7 61 23 61 68 0 26 -31 70 -47 67 -5 -1 -20 -4 -35 -6z m50
-25 c28 -28 8 -88 -29 -88 -18 0 -29 19 -29 54 0 24 17 46 35 46 6 0 16 -5 23
-12z"/>
<path d="M9318 5183 c-24 -6 -41 -64 -29 -95 14 -38 67 -52 90 -24 9 11 4 13
-26 12 -28 -1 -38 3 -41 16 -3 13 6 17 40 20 50 4 61 25 29 57 -21 21 -30 23
-63 14z m50 -35 c3 -14 -3 -18 -27 -18 -29 0 -41 17 -24 34 13 13 48 1 51 -16z"/>
<path d="M9465 5181 c-3 -6 -12 -8 -20 -4 -12 4 -15 -7 -15 -61 0 -37 4 -66
10 -66 6 0 10 22 10 49 0 39 5 53 21 64 12 9 16 18 10 21 -5 4 -12 2 -16 -3z"/>
<path d="M9580 5170 c-41 -41 -14 -120 40 -120 54 0 81 79 40 120 -11 11 -29
20 -40 20 -11 0 -29 -9 -40 -20z m65 -50 c0 -39 -3 -45 -22 -48 -17 -3 -26 3
-33 22 -14 38 3 78 33 74 19 -3 22 -9 22 -48z"/>
<path d="M6710 5166 c0 -26 43 -117 54 -113 12 4 58 118 51 126 -9 8 -22 -12
-35 -51 -6 -21 -15 -38 -19 -38 -5 0 -14 20 -21 45 -12 42 -30 61 -30 31z"/>
<path d="M8080 5175 c0 -3 7 -17 16 -31 16 -24 16 -27 -5 -55 -29 -40 -17 -52
13 -14 l23 29 18 -27 c9 -15 21 -24 26 -21 5 3 -1 18 -13 34 -20 28 -20 30 -4
55 22 34 12 45 -12 14 l-19 -23 -14 22 c-13 20 -29 30 -29 17z"/>
<path d="M8205 5168 c-9 -24 -1 -113 10 -111 14 4 19 103 6 116 -7 7 -12 5
-16 -5z"/>
<path d="M9510 5115 c0 -37 4 -65 10 -65 6 0 10 28 10 65 0 37 -4 65 -10 65
-6 0 -10 -28 -10 -65z"/>
<path d="M9710 5065 c0 -8 5 -15 10 -15 6 0 10 7 10 15 0 8 -4 15 -10 15 -5 0
-10 -7 -10 -15z"/>
<path d="M7362 4848 c-19 -19 -14 -30 8 -18 11 6 20 15 20 20 0 14 -14 12 -28
-2z"/>
<path d="M7890 4850 c0 -5 5 -10 11 -10 5 0 7 5 4 10 -3 6 -8 10 -11 10 -2 0
-4 -4 -4 -10z"/>
<path d="M8345 4850 c-3 -5 -1 -10 4 -10 6 0 11 5 11 10 0 6 -2 10 -4 10 -3 0
-8 -4 -11 -10z"/>
<path d="M9070 4850 c0 -5 5 -10 11 -10 5 0 7 5 4 10 -3 6 -8 10 -11 10 -2 0
-4 -4 -4 -10z"/>
<path d="M9170 4845 c-7 -8 -8 -15 -2 -15 5 0 15 7 22 15 7 8 8 15 2 15 -5 0
-15 -7 -22 -15z"/>
<path d="M6419 4831 c-19 -15 -24 -29 -24 -66 0 -37 5 -51 24 -66 31 -26 92
-25 116 1 26 29 11 36 -29 15 -34 -19 -36 -19 -55 0 -23 20 -28 74 -9 93 15
15 53 15 78 0 29 -18 39 1 11 23 -30 24 -82 24 -112 0z"/>
<path d="M7725 4825 c-52 -51 -18 -145 51 -145 42 0 74 15 74 36 0 11 -7 10
-31 -8 -28 -21 -32 -21 -56 -8 -59 34 -49 122 15 128 18 2 40 -2 48 -9 8 -6
18 -9 22 -5 12 13 -30 36 -65 36 -23 0 -42 -8 -58 -25z"/>
<path d="M8610 4765 c0 -69 3 -85 15 -85 10 0 15 11 15 35 0 35 0 35 46 35 27
0 43 4 39 10 -3 6 -24 10 -46 10 -37 0 -39 2 -39 30 0 29 2 30 45 30 25 0 45
5 45 10 0 6 -27 10 -60 10 l-60 0 0 -85z"/>
<path d="M6718 4816 c-10 -13 -13 -27 -8 -32 5 -5 10 -29 12 -54 3 -41 6 -45
31 -48 29 -4 37 12 12 22 -20 7 -20 75 0 82 12 5 12 9 -3 30 -21 29 -23 29
-44 0z"/>
<path d="M6591 4796 c-16 -19 4 -32 24 -16 8 6 19 9 25 5 19 -12 10 -24 -24
-31 -37 -6 -50 -25 -41 -55 5 -15 16 -18 64 -17 l59 1 -5 41 c-7 58 -27 86
-62 86 -16 0 -34 -6 -40 -14z m59 -71 c0 -16 -27 -32 -37 -22 -3 4 -3 13 0 22
8 20 37 20 37 0z"/>
<path d="M6818 4799 c-21 -12 -25 -88 -6 -107 18 -18 73 -15 89 5 13 15 11 16
-22 9 -27 -5 -38 -3 -42 8 -8 20 1 26 40 26 26 0 33 4 33 19 0 42 -52 64 -92
40z m60 -26 c2 -8 -5 -13 -17 -13 -12 0 -21 6 -21 16 0 18 31 15 38 -3z"/>
<path d="M6949 4794 c-17 -21 -17 -78 1 -99 9 -11 24 -15 42 -13 22 4 28 1 26
-11 -3 -12 -13 -15 -43 -13 -34 3 -37 1 -26 -12 15 -18 68 -21 91 -6 11 7 15
29 15 87 l0 77 -46 3 c-33 2 -50 -1 -60 -13z m66 -49 c0 -33 -3 -40 -20 -40
-15 0 -21 8 -23 28 -5 39 5 59 25 55 14 -2 18 -13 18 -43z"/>
<path d="M7106 4794 c-19 -18 -21 -85 -4 -102 18 -18 83 -15 99 4 20 24 16 84
-6 100 -25 19 -70 18 -89 -2z m63 -18 c18 -22 10 -70 -13 -74 -32 -7 -50 50
-24 76 16 16 23 15 37 -2z"/>
<path d="M7250 4743 c0 -49 3 -63 15 -63 11 0 15 12 15 46 0 37 4 47 20 51 34
9 23 31 -15 30 l-35 -1 0 -63z"/>
<path d="M7347 4804 c-4 -4 -7 -34 -7 -66 0 -52 2 -58 20 -58 19 0 21 5 18 62
-3 57 -14 79 -31 62z"/>
<path d="M7425 4797 c-13 -10 -15 -16 -6 -21 6 -4 18 -2 26 4 8 6 19 9 25 5
18 -11 11 -23 -19 -30 -37 -8 -54 -28 -46 -54 5 -17 14 -20 65 -19 56 1 73 9
50 23 -5 3 -10 26 -10 50 0 30 -5 45 -16 49 -25 10 -49 7 -69 -7z m55 -72 c0
-16 -27 -32 -37 -22 -3 4 -3 13 0 22 8 20 37 20 37 0z"/>
<path d="M7890 4746 c0 -37 4 -66 10 -66 6 0 10 26 10 59 0 33 -4 63 -10 66
-6 4 -10 -18 -10 -59z"/>
<path d="M7949 4794 c-17 -21 -17 -78 1 -99 16 -19 81 -17 88 3 3 11 0 12 -17
2 -28 -15 -61 -4 -61 21 0 16 7 19 45 19 37 0 45 3 45 18 0 44 -73 70 -101 36z
m71 -24 c0 -15 -7 -20 -24 -20 -27 0 -41 14 -31 30 3 6 17 10 31 10 17 0 24
-5 24 -20z"/>
<path d="M8087 4804 c-10 -11 -8 -124 2 -124 5 0 11 24 13 53 5 52 -2 83 -15
71z"/>
<path d="M8115 4800 c-4 -6 5 -10 19 -10 25 0 26 -3 26 -55 0 -42 3 -55 15
-55 18 0 21 80 5 111 -11 20 -54 26 -65 9z"/>
<path d="M8227 4792 c-22 -24 -22 -76 -1 -97 23 -23 78 -16 83 10 3 19 3 19
-16 3 -27 -25 -42 -22 -53 8 -15 37 -3 74 24 74 12 0 27 -5 34 -12 9 -9 12 -8
12 4 0 31 -58 38 -83 10z"/>
<path d="M8347 4803 c-11 -10 -8 -123 3 -123 6 0 10 28 10 65 0 65 -1 71 -13
58z"/>
<path d="M8411 4796 c-9 -11 -4 -13 25 -12 48 1 55 -20 10 -28 -41 -8 -60 -28
-51 -55 5 -17 14 -20 67 -18 33 1 55 3 49 5 -6 2 -11 25 -11 51 0 26 -5 52
-12 59 -16 16 -63 15 -77 -2z m69 -62 c0 -15 -22 -44 -33 -44 -19 0 -36 21
-30 36 5 13 63 21 63 8z"/>
<path d="M8760 4745 c0 -37 4 -65 10 -65 6 0 10 28 10 65 0 37 -4 65 -10 65
-6 0 -10 -28 -10 -65z"/>
<path d="M8827 4792 c-22 -24 -22 -76 -1 -97 23 -23 78 -16 83 10 3 19 3 19
-16 3 -27 -25 -42 -22 -53 8 -15 37 -3 74 24 74 12 0 27 -5 34 -12 9 -9 12 -8
12 4 0 31 -58 38 -83 10z"/>
<path d="M8956 4794 c-19 -18 -21 -85 -4 -102 17 -17 63 -15 78 3 10 12 10 15
-3 15 -8 0 -17 -6 -20 -12 -9 -26 -42 7 -45 46 -4 41 17 57 48 38 22 -13 34
-4 19 15 -15 18 -54 17 -73 -3z"/>
<path d="M9070 4746 c0 -37 4 -66 10 -66 6 0 10 26 10 59 0 33 -4 63 -10 66
-6 4 -10 -18 -10 -59z"/>
<path d="M9138 4800 c-25 -15 -33 -66 -14 -95 12 -19 25 -25 51 -25 39 0 55
20 55 69 0 51 -47 77 -92 51z m68 -36 c9 -33 -10 -74 -35 -74 -21 0 -31 18
-31 59 0 34 7 41 36 41 17 0 25 -7 30 -26z"/>
<path d="M9264 4801 c-9 -9 -3 -121 6 -121 6 0 10 15 10 33 0 55 10 77 35 77
25 0 35 -22 35 -77 0 -18 5 -33 10 -33 13 0 13 71 0 105 -9 22 -15 25 -51 23
-22 -2 -42 -5 -45 -7z"/>
<path d="M7560 4785 c0 -8 7 -15 15 -15 8 0 15 7 15 15 0 8 -7 15 -15 15 -8 0
-15 -7 -15 -15z"/>
<path d="M7560 4695 c0 -8 7 -15 15 -15 8 0 15 7 15 15 0 8 -7 15 -15 15 -8 0
-15 -7 -15 -15z"/>
<path d="M2065 2819 c-5 -6 -1 -16 9 -21 12 -7 16 -23 16 -63 0 -48 -2 -55
-20 -55 -11 0 -20 5 -20 10 0 6 -9 10 -20 10 -11 0 -20 -4 -20 -8 0 -17 37
-42 63 -42 41 0 59 36 55 112 -3 60 -4 63 -30 66 -14 2 -29 -2 -33 -9z"/>
<path d="M2320 2812 c-18 -14 -21 -25 -17 -44 5 -20 16 -28 52 -37 34 -9 45
-16 45 -31 0 -15 -7 -20 -29 -20 -17 0 -33 5 -36 10 -9 15 -35 12 -35 -5 0
-36 95 -48 124 -16 31 34 17 64 -36 80 -35 10 -48 20 -48 33 0 20 44 26 55 8
9 -15 35 -12 35 5 0 35 -74 46 -110 17z"/>
<path d="M2845 2820 c3 -5 10 -10 16 -10 5 0 9 5 9 10 0 6 -7 10 -16 10 -8 0
-12 -4 -9 -10z"/>
<path d="M3438 2824 c-5 -4 -8 -45 -8 -91 0 -67 3 -83 15 -83 10 0 15 10 15
30 0 57 42 48 79 -18 5 -9 15 -12 25 -9 14 6 14 10 -4 40 -17 28 -18 36 -7 40
23 9 27 45 8 68 -18 22 -108 39 -123 23z m91 -33 c25 -16 4 -41 -34 -41 -27 0
-35 4 -35 18 0 10 3 22 7 25 9 10 45 8 62 -2z"/>
<path d="M4024 2817 c-3 -8 -4 -47 -2 -88 2 -58 6 -74 18 -74 12 0 16 18 18
88 2 74 0 87 -13 87 -9 0 -18 -6 -21 -13z"/>
<path d="M7355 2818 c-33 -17 -45 -40 -45 -80 0 -93 115 -123 158 -41 20 37
14 73 -17 104 -31 30 -62 36 -96 17z m66 -28 c22 -12 27 -78 7 -98 -17 -17
-53 -15 -68 4 -20 23 -16 75 5 90 23 17 30 17 56 4z"/>
<path d="M8067 2810 c-31 -24 -42 -66 -27 -105 14 -37 38 -54 76 -55 41 0 84
33 67 51 -10 10 -16 9 -31 -4 -22 -20 -53 -22 -70 -5 -17 17 -15 74 4 92 17
18 50 21 59 6 8 -13 45 -13 45 0 0 12 -54 40 -78 40 -11 0 -31 -9 -45 -20z"/>
<path d="M12616 2823 c-3 -3 -6 -44 -6 -90 0 -66 3 -83 14 -83 10 0 16 13 18
38 3 35 5 37 38 37 33 0 35 -2 38 -37 2 -26 8 -38 18 -38 12 0 14 15 12 85 -3
84 -20 121 -26 57 -4 -37 -20 -47 -57 -38 -20 5 -25 13 -25 36 0 29 -12 45
-24 33z"/>
<path d="M13412 2819 c-19 -7 -23 -15 -20 -41 3 -29 8 -34 48 -48 26 -9 45
-22 45 -30 0 -20 -42 -25 -71 -9 -31 16 -42 4 -19 -21 12 -13 31 -20 55 -20
49 0 73 19 68 55 -2 25 -10 32 -48 46 -24 9 -46 21 -48 28 -6 18 27 25 55 12
36 -16 52 1 22 23 -26 18 -52 19 -87 5z"/>
<path d="M2764 2793 c-10 -24 -5 -115 8 -130 14 -18 48 -16 48 2 0 8 -4 15
-10 15 -14 0 -13 77 1 82 8 3 8 10 -2 26 -17 26 -34 28 -45 5z"/>
<path d="M8496 2791 c-11 -12 -14 -21 -7 -26 6 -3 11 -29 11 -56 0 -52 13 -68
48 -54 16 6 16 7 0 19 -20 15 -25 82 -7 88 8 3 8 10 -2 26 -17 27 -21 27 -43
3z"/>
<path d="M2488 2779 c-27 -16 -21 -29 11 -27 39 4 45 -15 7 -22 -33 -6 -52
-30 -43 -54 9 -24 36 -31 60 -16 15 9 22 10 25 1 4 -13 42 -15 42 -2 0 6 -4
13 -10 16 -5 3 -10 23 -10 43 0 20 -4 42 -8 49 -11 17 -54 24 -74 12z m52 -78
c0 -6 -5 -13 -10 -16 -15 -9 -43 3 -35 15 8 13 45 13 45 1z"/>
<path d="M2661 2781 c-7 -5 -22 -6 -32 -4 -17 5 -19 -1 -19 -61 0 -52 3 -66
15 -66 11 0 15 12 15 44 0 27 6 48 15 56 22 18 33 3 37 -50 2 -32 7 -45 18
-45 22 0 26 80 5 111 -16 25 -31 29 -54 15z"/>
<path d="M2929 2769 l-24 -20 37 6 c21 3 39 1 43 -5 6 -10 -1 -14 -46 -24 -32
-7 -43 -30 -29 -57 11 -20 54 -26 65 -9 5 8 11 7 21 -1 19 -15 52 -3 36 13 -7
7 -12 29 -12 49 0 28 -6 42 -22 53 -30 21 -41 20 -69 -5z m51 -74 c0 -8 -9
-15 -20 -15 -20 0 -26 11 -13 23 12 13 33 7 33 -8z"/>
<path d="M3066 2775 c-10 -10 -16 -33 -16 -60 0 -50 22 -70 65 -59 28 7 33 -7
10 -26 -12 -10 -19 -10 -27 -2 -16 16 -38 15 -38 -2 0 -16 21 -26 55 -26 38 0
55 35 55 112 0 64 -1 68 -22 67 -13 0 -32 2 -44 6 -13 4 -27 1 -38 -10z m68
-37 c13 -21 -2 -51 -27 -56 -18 -4 -31 30 -22 59 8 23 33 22 49 -3z"/>
<path d="M3240 2783 c-41 -15 -55 -87 -22 -116 25 -23 68 -21 92 3 23 23 26
68 8 93 -14 18 -55 29 -78 20z m48 -66 c3 -33 1 -37 -21 -37 -29 0 -42 32 -26
62 17 32 44 18 47 -25z"/>
<path d="M3628 2779 c-27 -16 -21 -29 11 -27 39 4 45 -15 7 -22 -33 -6 -52
-30 -43 -54 9 -24 36 -31 60 -16 15 9 22 10 25 1 4 -13 42 -15 42 -2 0 6 -4
13 -10 16 -5 3 -10 26 -10 50 0 34 -5 47 -19 55 -24 12 -41 12 -63 -1z m50
-81 c-7 -19 -38 -22 -38 -4 0 10 9 16 21 16 12 0 19 -5 17 -12z"/>
<path d="M3900 2770 c-40 -40 -14 -120 39 -120 29 0 60 25 47 37 -4 4 -15 3
-24 -3 -21 -13 -42 -7 -42 11 0 9 14 15 37 17 45 4 54 27 24 57 -26 26 -55 27
-81 1z m60 -25 c0 -8 -9 -15 -20 -15 -11 0 -20 7 -20 15 0 8 9 15 20 15 11 0
20 -7 20 -15z"/>
<path d="M4112 2774 c-28 -20 -31 -83 -4 -107 19 -18 59 -22 78 -9 38 25 39
91 1 117 -27 19 -47 19 -75 -1z m63 -54 c0 -29 -4 -36 -23 -38 -26 -4 -37 17
-28 54 5 19 12 25 29 22 18 -2 22 -9 22 -38z"/>
<path d="M7561 2781 c-7 -5 -22 -6 -33 -3 -18 4 -19 0 -16 -59 2 -49 7 -64 18
-64 11 0 16 14 20 50 4 36 9 50 20 50 11 0 16 -14 18 -52 2 -38 7 -53 18 -53
10 0 14 12 14 44 0 27 6 48 15 56 21 18 27 9 33 -50 3 -33 9 -50 18 -50 21 0
19 104 -2 124 -18 19 -20 19 -46 5 -14 -8 -23 -8 -31 0 -13 13 -27 14 -46 2z"/>
<path d="M7758 2783 c-10 -2 -18 -11 -18 -20 0 -11 7 -13 30 -8 23 5 30 3 30
-9 0 -11 -9 -16 -30 -16 -36 0 -56 -30 -40 -60 12 -22 49 -27 67 -9 8 8 13 8
17 0 4 -6 13 -11 20 -11 22 0 8 101 -16 123 -20 17 -28 19 -60 10z m42 -88 c0
-8 -9 -15 -20 -15 -11 0 -20 7 -20 15 0 8 9 15 20 15 11 0 20 -7 20 -15z"/>
<path d="M7921 2781 c-7 -5 -22 -6 -33 -3 -18 4 -19 0 -16 -58 2 -40 8 -65 16
-68 8 -2 12 8 12 33 0 43 15 75 35 75 8 0 15 4 15 9 0 15 -15 21 -29 12z"/>
<path d="M8238 2779 c-27 -16 -21 -29 11 -27 39 4 45 -15 7 -22 -33 -6 -52
-30 -43 -54 9 -24 36 -31 60 -16 15 9 22 10 25 1 4 -13 42 -15 42 -2 0 6 -4
13 -10 16 -5 3 -10 23 -10 43 0 20 -4 42 -8 49 -11 17 -54 24 -74 12z m52 -78
c0 -6 -5 -13 -10 -16 -15 -9 -43 3 -35 15 8 13 45 13 45 1z"/>
<path d="M8370 2770 c-26 -26 -17 -44 33 -64 36 -14 39 -18 25 -27 -12 -7 -24
-6 -38 1 -30 16 -46 8 -26 -13 22 -21 70 -22 90 -1 19 18 19 20 6 43 -5 10
-23 21 -40 24 -16 4 -30 12 -30 18 0 7 12 9 35 5 38 -8 48 7 16 24 -29 15 -49
12 -71 -10z"/>
<path d="M8631 2781 c-7 -5 -22 -6 -33 -3 -18 4 -19 0 -16 -58 2 -40 8 -65 16
-68 8 -2 12 9 12 37 0 28 7 48 21 62 22 22 23 44 0 30z"/>
<path d="M8710 2783 c-42 -17 -53 -80 -20 -113 42 -42 110 -13 110 46 0 54
-42 85 -90 67z m49 -41 c15 -29 2 -62 -24 -62 -15 0 -25 7 -28 22 -7 26 8 58
28 58 8 0 19 -8 24 -18z"/>
<path d="M12800 2770 c-40 -40 -14 -120 39 -120 29 0 60 25 47 37 -4 4 -15 3
-24 -3 -21 -13 -42 -7 -42 11 0 9 14 15 37 17 45 4 54 27 24 57 -26 26 -55 27
-81 1z m60 -25 c0 -8 -9 -15 -20 -15 -11 0 -20 7 -20 15 0 8 9 15 20 15 11 0
20 -7 20 -15z"/>
<path d="M12981 2781 c-7 -5 -22 -6 -32 -4 -17 5 -19 -1 -19 -61 0 -52 3 -66
15 -66 11 0 15 12 15 50 0 28 5 51 10 52 32 4 35 0 40 -47 4 -36 9 -50 20 -50
22 0 26 80 5 111 -16 25 -31 29 -54 15z"/>
<path d="M13131 2781 c-7 -5 -22 -6 -33 -3 -18 4 -19 0 -16 -58 2 -40 8 -65
16 -68 8 -2 12 9 12 37 0 28 7 48 21 62 22 22 23 44 0 30z"/>
<path d="M13728 2779 c-29 -16 -21 -31 12 -24 23 5 30 3 30 -9 0 -10 -9 -16
-22 -16 -36 0 -50 -15 -46 -46 2 -22 9 -30 27 -32 13 -2 28 1 33 6 7 7 16 7
29 -1 10 -6 20 -9 23 -6 5 5 -8 116 -15 123 -11 11 -56 15 -71 5z m42 -84 c0
-8 -9 -15 -20 -15 -20 0 -26 11 -13 23 12 13 33 7 33 -8z"/>
<path d="M13896 2782 c-3 -5 -17 -7 -31 -4 -26 5 -26 4 -23 -59 2 -49 7 -64
18 -64 11 0 16 13 18 45 2 31 9 50 24 61 13 10 17 19 10 23 -6 3 -13 2 -16 -2z"/>
<path d="M13968 2783 c-22 -6 -41 -54 -32 -87 10 -43 68 -62 94 -31 16 20 7
29 -17 17 -22 -12 -43 -5 -43 14 0 10 12 14 40 14 33 0 40 3 40 20 0 23 -34
61 -52 59 -7 -1 -20 -3 -30 -6z m47 -32 c3 -5 1 -13 -5 -16 -15 -9 -43 3 -35
15 8 13 32 13 40 1z"/>
<path d="M2842 2718 c2 -48 7 -63 18 -63 12 0 15 13 15 60 0 50 -3 60 -18 63
-16 3 -18 -3 -15 -60z"/>
<path d="M3743 2751 c17 -82 49 -120 74 -88 13 16 44 109 38 115 -12 12 -33
-10 -45 -49 l-13 -44 -15 48 c-18 53 -49 68 -39 18z"/>
<path d="M13186 2723 c29 -71 29 -79 4 -93 -22 -12 -18 -30 5 -30 7 0 20 7 28
15 18 18 71 154 64 162 -14 13 -35 -8 -41 -41 -9 -47 -20 -46 -35 4 -8 28 -17
40 -30 40 -18 0 -17 -3 5 -57z"/>
<path d="M13550 2726 c0 -66 17 -85 60 -69 21 8 30 8 33 0 2 -6 9 -7 15 -3 7
4 12 31 12 67 0 46 -3 59 -15 59 -10 0 -15 -10 -15 -34 0 -47 -9 -66 -31 -66
-14 0 -20 10 -25 50 -4 32 -11 50 -20 50 -10 0 -14 -15 -14 -54z"/>
<path d="M14080 2770 c0 -5 9 -10 20 -10 27 0 25 -15 -7 -56 -32 -43 -22 -56
38 -52 51 4 59 22 11 26 l-32 3 30 37 c42 51 39 62 -15 62 -25 0 -45 -4 -45
-10z"/>
<path d="M2162 2673 c2 -10 10 -18 18 -18 8 0 16 8 18 18 2 12 -3 17 -18 17
-15 0 -20 -5 -18 -17z"/>
<path d="M2700 2340 c0 -5 5 -10 11 -10 5 0 7 5 4 10 -3 6 -8 10 -11 10 -2 0
-4 -4 -4 -10z"/>
<path d="M3420 2326 c0 -23 -4 -26 -35 -26 -29 0 -36 -4 -41 -26 -4 -15 -3
-39 2 -53 8 -22 16 -26 52 -27 l42 -2 0 73 c0 41 -4 77 -10 80 -6 4 -10 -5
-10 -19z m-6 -52 c9 -24 7 -38 -8 -59 -12 -16 -16 -17 -30 -6 -16 13 -22 62
-9 74 12 13 41 7 47 -9z"/>
<path d="M3590 2270 c0 -47 4 -80 10 -80 6 0 10 33 10 80 0 47 -4 80 -10 80
-6 0 -10 -33 -10 -80z"/>
<path d="M4000 2340 c0 -5 5 -10 11 -10 5 0 7 5 4 10 -3 6 -8 10 -11 10 -2 0
-4 -4 -4 -10z"/>
<path d="M7657 2343 c-4 -3 -7 -14 -7 -24 0 -13 -9 -19 -32 -21 -28 -3 -34 -7
-36 -32 -2 -15 -1 -39 2 -52 5 -20 12 -24 46 -22 l40 1 0 79 c0 78 -1 84 -13
71z m-12 -98 c0 -33 -3 -40 -20 -40 -16 0 -21 8 -23 43 -3 40 -2 43 20 40 20
-3 23 -9 23 -43z"/>
<path d="M7838 2328 c-2 -17 -10 -23 -29 -24 -40 -1 -49 -12 -49 -53 0 -46 15
-61 58 -58 l32 2 0 78 c0 75 -5 100 -12 55z m-5 -59 c8 -31 -10 -71 -31 -67
-17 3 -28 47 -18 74 8 22 43 17 49 -7z"/>
<path d="M8190 2340 c0 -5 5 -10 11 -10 5 0 7 5 4 10 -3 6 -8 10 -11 10 -2 0
-4 -4 -4 -10z"/>
<path d="M8847 2343 c-4 -3 -7 -15 -7 -26 0 -14 -5 -18 -20 -14 -39 10 -61
-30 -47 -86 7 -25 11 -28 47 -25 l40 2 0 78 c0 78 -1 84 -13 71z m-9 -95 c-2
-35 -7 -43 -23 -43 -16 0 -21 8 -23 43 -3 39 -2 42 23 42 25 0 26 -3 23 -42z"/>
<path d="M10100 2324 c0 -23 -3 -26 -26 -21 -33 6 -54 -16 -54 -57 0 -41 18
-57 59 -54 l31 2 0 78 c0 43 -2 78 -5 78 -3 0 -5 -12 -5 -26z m-4 -58 c11 -45
-34 -91 -50 -50 -8 21 -8 59 1 67 15 16 43 6 49 -17z"/>
<path d="M10268 2328 c-2 -18 -11 -24 -38 -28 -32 -5 -35 -8 -38 -43 -4 -50
10 -66 59 -65 l39 0 0 74 c0 69 -15 111 -22 62z m-10 -80 c-2 -35 -7 -43 -23
-43 -15 0 -21 8 -23 28 -5 40 4 57 28 57 19 0 21 -5 18 -42z"/>
<path d="M10927 2343 c-11 -10 -8 -141 3 -148 6 -4 10 23 10 74 0 81 -1 87
-13 74z"/>
<path d="M11098 2344 c-5 -4 -8 -40 -8 -79 l0 -72 37 -1 c47 -2 63 12 63 54 0
41 -21 63 -54 57 -21 -4 -25 -1 -28 22 -2 15 -6 23 -10 19z m70 -77 c7 -33 -7
-67 -28 -67 -22 0 -34 31 -26 66 5 19 12 25 29 22 12 -2 23 -11 25 -21z"/>
<path d="M13617 2343 c-4 -3 -7 -14 -7 -24 0 -13 -9 -19 -32 -21 -32 -3 -33
-4 -33 -53 l0 -50 43 -1 42 -2 0 79 c0 79 -1 85 -13 72z m-9 -76 c11 -54 -26
-88 -48 -46 -18 32 -4 71 23 67 12 -2 23 -11 25 -21z"/>
<path d="M16340 2324 c0 -23 -3 -26 -26 -21 -33 6 -54 -16 -54 -57 0 -42 16
-56 63 -54 l37 1 0 73 c0 40 -4 76 -10 79 -6 4 -10 -5 -10 -21z m-4 -59 c8
-31 0 -53 -22 -62 -19 -7 -34 13 -34 48 0 30 7 39 31 39 11 0 21 -10 25 -25z"/>
<path d="M2027 2329 c-5 -9 -7 -43 -5 -75 l3 -59 50 -3 c54 -3 54 14 0 20 -29
3 -30 5 -35 68 -4 41 -9 59 -13 49z"/>
<path d="M7320 2320 c-15 -27 -6 -38 46 -60 49 -21 57 -46 19 -56 -18 -4 -32
-1 -45 11 -23 21 -39 13 -20 -10 9 -11 26 -15 53 -13 73 5 77 61 6 84 -37 13
-50 40 -23 51 9 3 25 1 36 -6 22 -13 34 -9 23 8 -3 6 -24 11 -45 11 -29 0 -42
-5 -50 -20z"/>
<path d="M12610 2281 c0 -68 15 -91 59 -91 43 0 61 28 61 93 0 31 -4 57 -10
57 -6 0 -10 -27 -10 -60 0 -49 -3 -61 -20 -70 -14 -8 -26 -8 -40 0 -17 9 -20
21 -20 70 0 33 -4 60 -10 60 -6 0 -10 -26 -10 -59z"/>
<path d="M4055 2313 c-8 -19 -7 -76 1 -105 3 -10 15 -18 27 -18 20 1 20 2 5
11 -19 11 -26 84 -9 91 5 2 4 11 -4 21 -12 17 -13 17 -20 0z"/>
<path d="M5658 2318 c-2 -7 -2 -39 0 -70 3 -52 6 -58 25 -57 12 0 16 3 10 6
-15 5 -18 89 -4 95 4 2 0 11 -9 21 -13 13 -19 15 -22 5z"/>
<path d="M8958 2318 c-2 -7 -2 -39 0 -70 3 -52 6 -58 25 -57 12 0 16 3 10 6
-15 5 -18 89 -4 95 4 2 0 11 -9 21 -13 13 -19 15 -22 5z"/>
<path d="M10805 2313 c-8 -19 -7 -76 1 -105 3 -10 15 -18 27 -18 20 1 20 2 5
11 -19 11 -26 84 -9 91 5 2 4 11 -4 21 -12 17 -13 17 -20 0z"/>
<path d="M4598 2309 c-2 -6 -1 -34 2 -62 4 -42 9 -52 25 -55 16 -3 18 -1 8 9
-16 16 -17 89 -2 89 8 0 8 5 -1 15 -15 18 -27 19 -32 4z"/>
<path d="M5470 2305 c-9 -10 -9 -15 -1 -15 7 0 11 -20 11 -50 0 -45 2 -50 23
-50 16 0 18 3 9 9 -9 5 -13 25 -12 52 3 60 1 69 -9 69 -5 0 -14 -7 -21 -15z"/>
<path d="M10558 2309 c-2 -6 -1 -34 2 -62 4 -42 9 -52 25 -55 16 -3 18 -1 8 9
-16 16 -17 89 -2 89 8 0 8 5 -1 15 -15 18 -27 19 -32 4z"/>
<path d="M12758 2309 c-2 -6 -1 -34 2 -62 4 -40 9 -53 23 -55 16 -3 17 -1 8
16 -14 27 -14 82 0 82 8 0 8 5 -1 15 -15 18 -27 19 -32 4z"/>
<path d="M16008 2309 c-2 -6 -1 -34 2 -62 4 -42 9 -52 25 -55 16 -3 18 -1 8 9
-16 16 -17 89 -2 89 8 0 8 5 -1 15 -15 18 -27 19 -32 4z"/>
<path d="M2282 2302 c-21 -3 -23 -8 -20 -53 4 -60 22 -70 26 -14 2 22 10 45
18 52 18 13 8 20 -24 15z"/>
<path d="M2488 2302 c-27 -3 -28 -6 -28 -58 0 -30 5 -54 10 -54 6 0 10 20 10
45 0 33 5 47 16 52 21 8 34 -14 34 -60 0 -23 4 -36 10 -32 6 3 10 26 10 51 0
37 3 44 20 44 17 0 20 -7 20 -50 0 -28 5 -50 11 -50 6 0 9 21 7 53 l-3 52 -36
1 c-20 1 -40 3 -45 5 -5 3 -21 3 -36 1z"/>
<path d="M2778 2302 c-28 -3 -28 -4 -28 -78 0 -43 4 -74 10 -74 6 0 10 9 10
20 0 16 7 20 30 20 24 0 33 6 41 27 21 55 -7 92 -63 85z m48 -36 c11 -45 -34
-91 -50 -50 -8 21 -8 59 1 67 15 16 43 6 49 -17z"/>
<path d="M3128 2302 c-27 -3 -28 -6 -28 -58 0 -30 5 -54 10 -54 6 0 10 17 10
38 0 45 13 67 34 59 11 -5 16 -19 16 -52 0 -60 18 -58 22 3 3 39 6 47 23 47
17 0 21 -9 26 -50 l6 -50 1 59 2 58 -32 -5 c-18 -2 -40 -2 -48 2 -8 4 -27 5
-42 3z"/>
<path d="M3783 2302 c-21 -3 -23 -9 -23 -58 0 -30 5 -54 10 -54 6 0 10 20 10
45 0 31 5 47 17 54 22 12 15 18 -14 13z"/>
<path d="M4328 2302 c-27 -3 -28 -5 -27 -60 1 -58 3 -57 14 11 4 28 11 37 25
37 17 0 20 -7 20 -50 0 -27 5 -50 10 -50 6 0 10 15 10 34 0 47 9 66 31 66 16
0 19 -8 19 -50 0 -28 5 -50 11 -50 6 0 9 21 7 53 l-3 52 -36 1 c-20 1 -40 3
-45 5 -5 3 -21 3 -36 1z"/>
<path d="M5381 2293 c-37 -26 -21 -103 22 -103 27 0 54 16 44 26 -3 4 -13 1
-22 -6 -23 -19 -47 5 -43 44 3 28 6 31 35 30 35 -2 37 10 4 19 -11 2 -29 -2
-40 -10z"/>
<path d="M9168 2302 c-27 -3 -28 -6 -28 -58 0 -34 4 -53 10 -49 6 3 10 26 10
51 0 37 3 44 20 44 17 0 20 -7 20 -50 0 -27 5 -50 10 -50 6 0 10 17 10 38 0
45 13 67 34 59 11 -5 16 -19 16 -52 0 -25 5 -45 10 -45 6 0 10 22 10 50 0 52
-21 78 -50 60 -8 -5 -21 -5 -29 -1 -9 4 -28 5 -43 3z"/>
<path d="M9583 2302 c-21 -3 -23 -9 -23 -58 0 -30 5 -54 10 -54 6 0 10 18 10
39 0 23 7 46 16 56 19 19 17 22 -13 17z"/>
<path d="M9778 2302 c-27 -3 -28 -5 -27 -60 1 -58 3 -57 14 11 5 32 10 38 28
35 19 -3 22 -10 25 -50 4 -63 22 -62 22 2 0 55 -14 68 -62 62z"/>
<path d="M9881 2293 c-37 -26 -21 -103 22 -103 27 0 54 16 44 26 -3 4 -13 1
-22 -6 -23 -19 -47 5 -43 44 3 28 6 31 35 30 35 -2 37 10 4 19 -11 2 -29 -2
-40 -10z"/>
<path d="M10468 2302 c-27 -3 -28 -6 -28 -58 0 -34 4 -53 10 -49 6 3 10 26 10
51 0 41 2 45 23 42 19 -3 22 -10 25 -50 4 -63 22 -62 22 2 0 55 -14 68 -62 62z"/>
<path d="M13287 2303 c-4 -3 -30 -5 -59 -4 l-53 1 4 -57 c3 -32 6 -51 7 -43 1
8 5 32 9 53 4 28 11 37 25 37 17 0 20 -7 20 -50 0 -64 18 -66 22 -2 3 39 6 47
23 47 17 0 20 -8 23 -47 4 -60 22 -63 22 -4 0 49 -25 88 -43 69z"/>
<path d="M13837 2303 c-4 -3 -30 -5 -59 -4 l-53 1 4 -57 c3 -32 6 -51 7 -43 1
8 5 32 9 53 4 28 11 37 25 37 17 0 20 -7 20 -50 0 -64 18 -66 22 -2 3 39 6 47
23 47 17 0 20 -8 23 -47 4 -60 22 -63 22 -4 0 49 -25 88 -43 69z"/>
<path d="M14237 2303 c-4 -3 -30 -5 -59 -4 l-53 1 4 -57 c3 -32 6 -51 7 -43 1
8 5 32 9 53 4 28 11 37 25 37 17 0 20 -7 20 -50 0 -64 18 -66 22 -2 3 39 6 47
23 47 17 0 20 -8 23 -47 4 -60 22 -63 22 -4 0 49 -25 88 -43 69z"/>
<path d="M14628 2302 c-27 -3 -28 -6 -28 -58 0 -66 18 -72 22 -6 3 40 6 47 26
50 20 3 22 0 22 -47 0 -28 5 -51 10 -51 6 0 10 22 10 50 0 55 -14 68 -62 62z"/>
<path d="M14918 2302 c-27 -3 -28 -6 -28 -58 0 -66 18 -72 22 -6 3 39 6 47 23
47 17 0 20 -8 23 -48 4 -59 22 -52 22 9 0 37 3 44 20 44 17 0 20 -7 20 -44 0
-25 5 -48 10 -51 6 -4 10 15 10 50 l0 56 -38 -2 c-21 -2 -42 -1 -47 2 -6 3
-22 3 -37 1z"/>
<path d="M2146 2284 c-10 -26 -7 -69 6 -82 19 -19 66 -15 78 7 14 26 13 64 -2
79 -18 18 -75 15 -82 -4z m72 -30 c3 -34 -17 -58 -42 -48 -10 4 -16 18 -16 38
0 39 7 48 35 44 14 -2 21 -12 23 -34z"/>
<path d="M2339 2276 c-8 -16 -8 -34 -2 -53 8 -23 15 -28 43 -28 19 0 35 6 38
13 3 11 0 11 -16 1 -17 -10 -23 -10 -36 0 -26 22 -19 31 24 31 28 0 40 4 40
14 0 33 -13 46 -46 46 -27 0 -37 -5 -45 -24z m69 -3 c2 -9 -7 -13 -27 -13 -23
0 -29 4 -24 16 6 17 44 15 51 -3z"/>
<path d="M2700 2245 c0 -30 5 -55 10 -55 6 0 10 25 10 55 0 30 -4 55 -10 55
-5 0 -10 -25 -10 -55z"/>
<path d="M2877 2293 c-16 -15 -5 -35 29 -49 42 -18 40 -40 -5 -38 -17 1 -28
-2 -25 -7 10 -16 63 -10 73 9 13 24 2 39 -32 47 -39 10 -37 39 3 32 17 -4 30
-2 30 3 0 11 -63 14 -73 3z"/>
<path d="M2980 2258 c0 -57 9 -68 53 -66 l37 1 0 54 c0 66 -18 71 -22 6 -3
-40 -6 -48 -23 -48 -17 0 -20 8 -23 48 -4 58 -22 63 -22 5z"/>
<path d="M3471 2281 c-24 -43 1 -91 46 -91 30 0 45 24 41 67 -3 36 -5 38 -40
41 -28 2 -39 -1 -47 -17z m73 -16 c8 -30 -8 -65 -29 -65 -20 0 -38 38 -31 66
9 34 51 33 60 -1z"/>
<path d="M3639 2277 c-18 -40 1 -81 38 -85 39 -4 55 17 51 65 -3 36 -5 38 -40
41 -32 3 -40 -1 -49 -21z m69 -30 c2 -27 -1 -39 -13 -43 -22 -9 -45 14 -45 46
0 33 8 42 35 38 15 -2 21 -12 23 -41z"/>
<path d="M3897 2293 c-16 -15 -5 -35 28 -49 19 -8 35 -19 35 -24 0 -18 -32
-24 -52 -11 -16 10 -19 10 -16 -1 6 -17 55 -23 74 -7 23 19 16 38 -21 53 -44
19 -47 40 -5 34 17 -3 30 -1 30 4 0 10 -64 11 -73 1z"/>
<path d="M4000 2245 c0 -30 5 -55 10 -55 6 0 10 25 10 55 0 30 -4 55 -10 55
-5 0 -10 -25 -10 -55z"/>
<path d="M4180 2291 c0 -6 12 -8 30 -4 42 8 40 -20 -2 -32 -26 -8 -33 -15 -33
-35 0 -23 3 -25 53 -26 38 -1 50 1 43 10 -5 6 -11 29 -13 51 -3 38 -5 40 -40
43 -22 2 -38 -1 -38 -7z m58 -63 c-2 -13 -11 -24 -21 -26 -22 -4 -35 27 -16
39 25 16 41 10 37 -13z"/>
<path d="M4478 2274 c-17 -38 7 -79 47 -79 15 0 30 6 33 13 3 11 1 11 -18 0
-19 -11 -23 -11 -36 7 -14 19 -13 20 25 23 41 3 48 12 35 46 -4 10 -18 16 -40
16 -27 0 -37 -5 -46 -26z m72 1 c0 -9 -9 -15 -25 -15 -16 0 -25 6 -25 15 0 9
9 15 25 15 16 0 25 -6 25 -15z"/>
<path d="M4787 2293 c-13 -12 -7 -80 7 -93 22 -17 60 -8 64 15 4 20 3 20 -11
1 -23 -31 -47 -14 -47 34 0 32 4 40 18 40 10 0 23 -5 30 -12 9 -9 12 -8 12 5
0 13 -9 17 -33 17 -19 0 -37 -3 -40 -7z"/>
<path d="M4897 2293 c-12 -11 -8 -78 5 -91 28 -28 88 0 88 42 0 35 -20 56 -54
56 -18 0 -36 -3 -39 -7z m67 -28 c8 -30 -8 -65 -29 -65 -21 0 -37 35 -29 65 4
18 13 25 29 25 16 0 25 -7 29 -25z"/>
<path d="M5010 2245 c0 -30 5 -55 10 -55 6 0 10 15 10 34 0 47 9 66 31 66 19
0 25 -14 32 -75 2 -16 5 -4 6 28 l1 57 -45 0 -45 0 0 -55z"/>
<path d="M5137 2293 c-16 -15 -5 -35 29 -49 42 -18 40 -40 -5 -38 -17 1 -28
-2 -25 -7 8 -13 58 -11 72 3 21 21 13 37 -23 52 -44 19 -47 40 -5 34 17 -3 30
-1 30 4 0 10 -64 11 -73 1z"/>
<path d="M5244 2274 c-11 -43 7 -78 40 -82 16 -2 34 2 40 8 8 9 6 11 -12 5
-23 -7 -52 8 -52 26 0 5 16 9 35 9 23 0 38 6 41 15 10 24 -15 45 -52 45 -28 0
-35 -4 -40 -26z m69 1 c-3 -13 -53 -20 -53 -7 0 15 13 23 35 20 11 -2 19 -7
18 -13z"/>
<path d="M5542 2288 c-15 -15 -16 -53 -2 -79 12 -21 64 -27 76 -8 4 8 -1 9
-15 4 -22 -7 -51 9 -51 26 0 5 16 9 35 9 39 0 55 21 35 45 -15 18 -61 20 -78
3z m66 -15 c2 -9 -7 -13 -27 -13 -30 0 -39 9 -24 24 11 10 46 3 51 -11z"/>
<path d="M5722 2248 l3 -53 43 -1 42 -2 0 54 c0 30 -4 54 -10 54 -5 0 -10 -17
-10 -37 0 -46 -13 -68 -34 -60 -11 5 -16 19 -16 52 0 25 -5 45 -11 45 -6 0 -9
-21 -7 -52z"/>
<path d="M5840 2245 c0 -30 5 -55 10 -55 6 0 10 20 10 45 0 31 5 47 18 54 14
9 13 10 -10 11 -27 0 -28 -2 -28 -55z"/>
<path d="M7458 2275 c-23 -52 32 -105 79 -75 15 9 12 10 -14 5 -25 -5 -34 -2
-43 14 -10 20 -8 21 30 21 39 0 41 1 38 28 -3 23 -8 27 -40 30 -33 3 -40 0
-50 -23z m72 0 c0 -9 -9 -15 -25 -15 -16 0 -25 6 -25 15 0 9 9 15 25 15 16 0
25 -6 25 -15z"/>
<path d="M7884 2274 c-11 -43 7 -78 41 -82 34 -4 55 18 55 58 0 35 -17 50 -57
50 -27 0 -34 -5 -39 -26z m74 -20 c4 -38 -20 -63 -43 -44 -15 13 -21 61 -8 74
4 4 16 6 28 4 14 -2 21 -12 23 -34z"/>
<path d="M8071 2281 c-16 -30 -13 -56 8 -75 22 -20 62 -18 69 4 5 13 3 13 -11
1 -20 -16 -47 -8 -47 14 0 11 10 15 36 15 33 0 35 2 32 28 -3 23 -8 27 -40 30
-28 2 -39 -1 -47 -17z m69 -6 c0 -9 -9 -15 -25 -15 -16 0 -25 6 -25 15 0 9 9
15 25 15 16 0 25 -6 25 -15z"/>
<path d="M8190 2245 c0 -30 5 -55 10 -55 6 0 10 25 10 55 0 30 -4 55 -10 55
-5 0 -10 -25 -10 -55z"/>
<path d="M8243 2250 l2 -55 43 -1 42 -2 0 54 c0 30 -4 54 -10 54 -5 0 -10 -15
-10 -34 0 -44 -9 -66 -25 -66 -18 0 -28 17 -36 65 -6 36 -7 35 -6 -15z"/>
<path d="M8360 2275 c0 -20 6 -27 30 -31 21 -5 30 -12 30 -26 0 -18 -5 -20
-32 -14 -24 5 -29 3 -21 -5 6 -6 23 -9 39 -7 21 2 30 9 32 26 3 18 -3 26 -27
35 -42 15 -42 42 -1 33 19 -3 29 -2 25 4 -3 6 -22 10 -41 10 -30 0 -34 -3 -34
-25z"/>
<path d="M8470 2244 c0 -30 5 -54 10 -54 6 0 10 20 10 45 0 33 5 47 16 52 21
8 33 -13 35 -62 2 -33 3 -35 6 -10 7 62 13 75 33 75 17 0 20 -7 20 -50 0 -28
5 -50 11 -50 6 0 9 21 7 53 l-3 52 -72 1 -73 2 0 -54z"/>
<path d="M8650 2274 c-7 -18 -7 -34 3 -52 29 -62 118 -11 89 52 -9 21 -19 26
-47 26 -29 0 -37 -5 -45 -26z m76 -8 c7 -28 -11 -66 -31 -66 -20 0 -38 38 -31
66 5 17 13 24 31 24 18 0 26 -7 31 -24z"/>
<path d="M9022 2288 c-16 -16 -15 -60 1 -82 15 -20 68 -19 75 2 3 11 0 11 -16
1 -17 -10 -23 -10 -36 0 -26 22 -19 31 24 31 41 0 47 9 34 44 -7 19 -64 22
-82 4z m66 -15 c2 -9 -7 -13 -27 -13 -30 0 -39 9 -24 24 11 10 46 3 51 -11z"/>
<path d="M9320 2226 c0 -44 4 -76 10 -76 6 0 10 10 10 23 0 20 4 23 30 19 24
-3 30 0 35 21 4 13 5 38 3 53 -3 26 -7 29 -45 32 l-43 3 0 -75z m74 39 c8 -32
-10 -67 -32 -63 -17 3 -28 47 -18 74 9 24 43 16 50 -11z"/>
<path d="M9447 2293 c-12 -11 -8 -78 5 -91 28 -28 88 0 88 42 0 35 -20 56 -54
56 -18 0 -36 -3 -39 -7z m67 -28 c8 -30 -8 -65 -29 -65 -21 0 -37 35 -29 65 4
18 13 25 29 25 16 0 25 -7 29 -25z"/>
<path d="M9703 2245 c0 -33 2 -45 4 -27 2 18 2 45 0 60 -2 15 -4 0 -4 -33z"/>
<path d="M9970 2251 c0 -28 5 -53 10 -56 6 -4 10 15 10 49 0 31 -4 56 -10 56
-5 0 -10 -22 -10 -49z"/>
<path d="M10153 2245 c0 -33 2 -45 4 -27 2 18 2 45 0 60 -2 15 -4 0 -4 -33z"/>
<path d="M10310 2264 c0 -47 16 -74 43 -73 15 0 17 2 7 6 -23 9 -30 24 -30 66
0 20 -4 37 -10 37 -5 0 -10 -16 -10 -36z"/>
<path d="M10389 2260 c-1 -22 -2 -45 -3 -52 -1 -6 5 -13 12 -15 9 -4 12 11 12
51 0 63 -19 78 -21 16z"/>
<path d="M10680 2258 c0 -57 9 -68 53 -66 l37 1 0 54 c0 66 -18 71 -22 6 -3
-40 -6 -48 -23 -48 -17 0 -20 8 -23 48 -4 58 -22 63 -22 5z"/>
<path d="M10980 2291 c0 -6 12 -8 30 -4 42 8 40 -20 -2 -32 -26 -8 -33 -15
-33 -35 0 -23 3 -25 53 -26 38 -1 50 1 43 10 -5 6 -11 29 -13 51 -3 38 -5 40
-40 43 -22 2 -38 -1 -38 -7z m58 -63 c-2 -13 -11 -24 -21 -26 -22 -4 -35 27
-16 39 25 16 41 10 37 -13z"/>
<path d="M11222 2288 c-15 -15 -16 -53 -2 -79 12 -22 59 -26 78 -7 13 13 16
56 6 82 -7 19 -64 22 -82 4z m66 -34 c4 -38 -20 -63 -43 -44 -15 13 -21 61 -8
74 4 4 16 6 28 4 14 -2 21 -12 23 -34z"/>
<path d="M11340 2244 c0 -34 4 -53 10 -49 6 3 10 24 10 45 0 27 6 42 18 49 14
9 13 10 -10 11 -27 0 -28 -2 -28 -56z"/>
<path d="M11417 2293 c-13 -12 -7 -80 7 -92 18 -15 68 -10 74 7 3 10 -2 10
-23 0 -22 -10 -28 -9 -36 3 -15 24 -10 29 25 29 41 0 51 12 36 40 -7 14 -21
20 -44 20 -18 0 -36 -3 -39 -7z m71 -20 c2 -9 -7 -13 -27 -13 -30 0 -39 9 -24
24 11 10 46 3 51 -11z"/>
<path d="M12892 2288 c-15 -15 -16 -53 -2 -79 12 -21 64 -27 76 -8 4 8 -1 9
-15 4 -22 -7 -51 9 -51 26 0 5 16 9 35 9 39 0 55 21 35 45 -15 18 -61 20 -78
3z m66 -15 c2 -9 -7 -13 -27 -13 -30 0 -39 9 -24 24 11 10 46 3 51 -11z"/>
<path d="M13011 2243 c1 -59 3 -58 14 10 5 32 10 38 28 35 19 -3 22 -10 25
-50 2 -27 8 -48 13 -48 6 0 9 22 7 53 l-3 52 -42 3 -43 3 1 -58z"/>
<path d="M13130 2245 c0 -30 5 -55 10 -55 6 0 10 25 10 55 0 30 -4 55 -10 55
-5 0 -10 -25 -10 -55z"/>
<path d="M13426 2291 c-3 -5 8 -8 25 -7 18 0 34 -5 36 -11 3 -8 -4 -13 -19
-13 -13 0 -33 -6 -44 -14 -32 -24 -7 -51 48 -51 43 -1 44 0 40 30 -8 71 -10
75 -47 75 -18 0 -36 -4 -39 -9z m59 -60 c0 -8 -8 -19 -18 -25 -22 -14 -42 11
-25 32 14 16 43 12 43 -7z"/>
<path d="M13900 2251 c0 -28 5 -53 10 -56 6 -4 10 15 10 49 0 31 -4 56 -10 56
-5 0 -10 -22 -10 -49z"/>
<path d="M13950 2245 c0 -30 5 -55 10 -55 6 0 10 15 10 34 0 47 9 66 30 66 21
0 30 -19 30 -68 0 -27 3 -33 11 -25 7 7 9 28 5 57 l-7 46 -45 0 -44 0 0 -55z"/>
<path d="M14070 2251 c0 -28 5 -53 10 -56 6 -4 10 15 10 49 0 31 -4 56 -10 56
-5 0 -10 -22 -10 -49z"/>
<path d="M14360 2291 c0 -20 40 -101 50 -101 5 0 10 1 10 3 0 1 9 26 20 55 24
62 10 71 -15 10 l-18 -43 -14 43 c-13 37 -33 57 -33 33z"/>
<path d="M14478 2274 c-17 -38 7 -79 47 -79 15 0 30 6 33 13 3 11 1 11 -18 0
-19 -11 -23 -11 -36 7 -14 19 -13 20 25 23 41 3 48 12 35 46 -4 10 -18 16 -40
16 -27 0 -37 -5 -46 -26z m72 1 c0 -9 -9 -15 -25 -15 -16 0 -25 6 -25 15 0 9
9 15 25 15 16 0 25 -6 25 -15z"/>
<path d="M14720 2245 c0 -30 5 -55 10 -55 6 0 10 25 10 55 0 30 -4 55 -10 55
-5 0 -10 -25 -10 -55z"/>
<path d="M14776 2291 c-3 -5 8 -8 25 -7 18 0 34 -5 36 -11 3 -8 -4 -13 -19
-13 -13 0 -33 -6 -44 -14 -32 -24 -7 -51 48 -51 43 -1 44 0 40 30 -8 71 -10
75 -47 75 -18 0 -36 -4 -39 -9z m59 -60 c0 -8 -8 -19 -18 -25 -22 -14 -42 11
-25 32 14 16 43 12 43 -7z"/>
<path d="M15197 2293 c-4 -3 -7 -23 -7 -43 0 -42 20 -65 50 -57 15 4 22 -1 26
-19 11 -44 24 -14 24 57 l0 69 -43 0 c-24 0 -47 -3 -50 -7z m61 -45 c-2 -35
-7 -43 -23 -43 -15 0 -21 8 -23 28 -5 40 4 57 28 57 19 0 21 -5 18 -42z"/>
<path d="M15310 2264 c0 -47 16 -74 43 -73 15 0 17 2 7 6 -23 9 -30 24 -30 66
0 20 -4 37 -10 37 -5 0 -10 -16 -10 -36z"/>
<path d="M15389 2260 c-1 -22 -2 -45 -3 -52 -1 -6 5 -13 12 -15 9 -4 12 11 12
51 0 63 -19 78 -21 16z"/>
<path d="M15443 2245 c0 -33 2 -45 4 -27 2 18 2 45 0 60 -2 15 -4 0 -4 -33z"/>
<path d="M15486 2285 c-7 -18 19 -45 45 -45 12 0 19 -7 19 -20 0 -23 -29 -27
-48 -8 -9 9 -12 8 -12 -6 0 -14 7 -17 38 -14 29 2 38 7 40 25 3 17 -5 25 -32
37 -48 20 -48 41 -1 33 21 -3 33 -2 30 4 -10 15 -72 11 -79 -6z"/>
<path d="M15661 2243 c1 -59 3 -58 14 10 5 32 10 38 28 35 19 -3 22 -10 25
-50 2 -27 8 -48 13 -48 6 0 9 22 7 53 l-3 52 -42 3 -43 3 1 -58z"/>
<path d="M15779 2276 c-18 -39 5 -86 41 -86 37 0 52 21 48 67 -3 36 -5 38 -40
41 -32 3 -40 -1 -49 -22z m69 -28 c-3 -49 -29 -63 -48 -28 -18 34 -5 70 26 70
23 0 25 -3 22 -42z"/>
<path d="M15900 2275 c0 -20 6 -27 30 -31 21 -5 30 -12 30 -25 0 -22 -29 -26
-49 -6 -11 10 -13 9 -9 -3 7 -24 65 -25 77 -2 12 23 2 34 -42 51 -36 14 -25
35 15 27 18 -3 27 -2 23 4 -3 6 -22 10 -41 10 -30 0 -34 -3 -34 -25z"/>
<path d="M16070 2245 c0 -30 5 -55 10 -55 6 0 10 20 10 45 0 31 5 47 18 54 14
9 13 10 -10 11 -27 0 -28 -2 -28 -55z"/>
<path d="M16140 2268 c0 -68 8 -79 54 -76 l41 3 3 53 c2 41 0 52 -12 52 -11 0
-16 -13 -18 -47 -3 -40 -6 -48 -23 -48 -17 0 -20 8 -23 48 -3 53 -22 65 -22
15z"/>
<path d="M4660 2200 c0 -5 7 -10 16 -10 8 0 12 5 9 10 -3 6 -10 10 -16 10 -5
0 -9 -4 -9 -10z"/>
<path d="M15080 2201 c0 -6 5 -13 10 -16 6 -3 10 1 10 9 0 9 -4 16 -10 16 -5
0 -10 -4 -10 -9z"/>
<path d="M7800 1961 c0 -47 4 -81 10 -81 6 0 10 31 10 74 0 41 -4 78 -10 81
-6 4 -10 -23 -10 -74z"/>
<path d="M13435 2030 c-3 -5 -1 -10 4 -10 6 0 11 5 11 10 0 6 -2 10 -4 10 -3
0 -8 -4 -11 -10z"/>
<path d="M13906 2024 c-10 -26 -7 -144 4 -144 6 0 10 33 10 80 0 81 -3 93 -14
64z"/>
<path d="M13956 2024 c-10 -26 -7 -144 4 -144 6 0 10 33 10 80 0 81 -3 93 -14
64z"/>
<path d="M14600 1961 c0 -47 4 -81 10 -81 6 0 10 31 10 74 0 41 -4 78 -10 81
-6 4 -10 -23 -10 -74z"/>
<path d="M2217 2010 c-4 -14 -14 -20 -35 -20 -31 0 -42 -14 -42 -55 0 -45 10
-55 56 -55 l44 0 0 69 c0 68 -12 101 -23 61z m-12 -75 c0 -33 -3 -40 -20 -40
-15 0 -21 8 -23 28 -5 39 5 59 25 55 14 -2 18 -13 18 -43z"/>
<path d="M3180 1955 c0 -43 4 -75 10 -75 6 0 10 32 10 75 0 43 -4 75 -10 75
-6 0 -10 -32 -10 -75z"/>
<path d="M7630 2010 c0 -16 -7 -20 -34 -20 -36 0 -46 -12 -46 -59 0 -37 17
-51 62 -51 l38 0 0 75 c0 43 -4 75 -10 75 -5 0 -10 -9 -10 -20z m-4 -55 c8
-31 0 -53 -22 -62 -19 -7 -34 13 -34 48 0 30 7 39 31 39 11 0 21 -10 25 -25z"/>
<path d="M9080 1955 c0 -43 4 -75 10 -75 6 0 10 32 10 75 0 43 -4 75 -10 75
-6 0 -10 -32 -10 -75z"/>
<path d="M14770 1956 l0 -74 43 2 42 1 0 50 c0 50 0 50 -32 50 -28 0 -33 4
-33 22 0 13 -4 23 -10 23 -6 0 -10 -31 -10 -74z m71 0 c14 -29 -4 -69 -29 -64
-17 3 -28 47 -18 74 8 22 35 16 47 -10z"/>
<path d="M3271 1996 c-8 -10 -9 -16 -1 -21 5 -3 10 -26 10 -51 0 -39 3 -44 23
-44 16 0 18 3 9 9 -9 5 -13 25 -12 52 3 60 1 69 -9 69 -5 0 -14 -6 -20 -14z"/>
<path d="M7437 2003 c-2 -4 -2 -34 0 -65 5 -51 8 -58 27 -58 19 1 19 2 4 11
-20 11 -25 68 -8 85 8 8 6 15 -4 23 -8 7 -16 8 -19 4z"/>
<path d="M13188 2000 c-1 -5 -1 -35 0 -65 3 -49 6 -55 25 -54 12 0 16 3 10 6
-16 6 -18 93 -2 93 6 0 4 7 -5 15 -17 18 -23 19 -28 5z"/>
<path d="M13374 2000 c-5 -5 -7 -33 -4 -62 4 -43 9 -53 25 -56 16 -3 18 -1 8
9 -16 16 -17 86 -2 91 7 2 6 8 -3 16 -9 7 -18 8 -24 2z"/>
<path d="M2030 1981 c0 -6 12 -9 26 -8 39 3 40 -17 2 -28 -26 -8 -33 -15 -33
-35 0 -24 3 -25 55 -26 30 -1 49 1 43 3 -7 3 -13 20 -13 38 0 53 -9 65 -46 65
-19 0 -34 -4 -34 -9z m57 -75 c-4 -9 -16 -16 -27 -16 -25 0 -28 37 -2 43 23 5
36 -8 29 -27z"/>
<path d="M2260 1935 c0 -30 5 -55 10 -55 6 0 10 25 10 55 0 30 -4 55 -10 55
-5 0 -10 -25 -10 -55z"/>
<path d="M2310 1915 c0 -43 4 -75 10 -75 6 0 10 9 10 20 0 16 7 20 30 20 37 0
54 29 45 76 -6 33 -8 34 -50 34 l-45 0 0 -75z m75 20 c0 -33 -4 -41 -22 -43
-25 -4 -38 26 -29 64 5 19 12 25 29 22 18 -3 22 -9 22 -43z"/>
<path d="M2437 1983 c-11 -10 -8 -103 3 -103 6 0 10 25 10 55 0 56 -1 60 -13
48z"/>
<path d="M2484 1975 c-8 -20 12 -43 39 -47 12 -2 23 -12 25 -22 4 -17 0 -18
-32 -13 -22 3 -34 2 -31 -4 10 -15 72 -11 79 6 9 25 -3 42 -35 49 -18 3 -29
12 -29 22 0 13 6 15 30 11 17 -4 30 -2 30 3 0 17 -70 12 -76 -5z"/>
<path d="M2602 1978 c-7 -7 -12 -26 -12 -43 0 -17 5 -36 12 -43 17 -17 53 -15
68 3 14 17 0 21 -17 4 -21 -21 -43 -2 -43 36 0 39 21 55 45 35 12 -10 15 -9
15 4 0 19 -50 22 -68 4z"/>
<path d="M2700 1935 c0 -30 5 -55 10 -55 6 0 10 25 10 55 0 30 -4 55 -10 55
-5 0 -10 -25 -10 -55z"/>
<path d="M2750 1936 c0 -68 18 -75 22 -8 3 39 6 47 23 47 17 0 20 -8 23 -47 2
-27 8 -48 13 -48 6 0 9 22 7 53 l-3 52 -42 3 -43 3 0 -55z"/>
<path d="M2875 1980 c-9 -15 -9 -76 0 -90 4 -7 20 -10 36 -8 23 4 29 1 29 -15
0 -16 -5 -18 -30 -15 -33 5 -41 -7 -10 -17 10 -3 28 -1 40 5 17 9 20 21 20 78
l0 68 -39 2 c-22 2 -42 -2 -46 -8z m60 -45 c0 -33 -3 -40 -20 -40 -15 0 -21 8
-23 28 -5 39 5 59 25 55 14 -2 18 -13 18 -43z"/>
<path d="M3058 1965 c-17 -38 0 -79 34 -83 15 -2 35 2 45 8 15 9 13 10 -10 5
-28 -6 -57 8 -57 26 0 5 18 9 40 9 32 0 40 4 40 18 0 47 -72 60 -92 17z m70
-2 c4 -16 -22 -27 -43 -19 -22 8 -6 38 18 34 11 -2 22 -9 25 -15z"/>
<path d="M3227 1983 c-11 -10 -8 -103 3 -103 6 0 10 25 10 55 0 56 -1 60 -13
48z"/>
<path d="M7322 1978 c-7 -7 -12 -26 -12 -43 0 -17 5 -36 12 -43 14 -14 64 -16
72 -3 3 5 -9 8 -26 7 -23 -1 -33 4 -36 17 -3 14 4 17 37 17 42 0 48 8 31 41
-12 22 -59 26 -78 7z m61 -12 c7 -17 -1 -26 -24 -26 -21 0 -33 15 -24 30 9 15
42 12 48 -4z"/>
<path d="M7678 1965 c-17 -38 0 -79 35 -83 36 -4 57 13 57 48 0 48 -9 60 -46
60 -27 0 -37 -5 -46 -25z m67 -30 c0 -33 -4 -41 -22 -43 -25 -4 -38 26 -29 64
5 19 12 25 29 22 18 -3 22 -9 22 -43z"/>
<path d="M7850 1966 c-5 -13 -5 -37 -1 -53 7 -25 12 -28 46 -28 33 0 40 4 48
28 15 46 -4 77 -48 77 -28 0 -37 -5 -45 -24z m70 -2 c19 -21 1 -69 -25 -69
-26 0 -44 48 -25 69 7 9 18 16 25 16 7 0 18 -7 25 -16z"/>
<path d="M7970 1934 c0 -30 5 -54 10 -54 6 0 10 20 10 45 0 30 5 47 17 53 13
8 11 10 -10 10 -26 0 -27 -3 -27 -54z"/>
<path d="M8052 1978 c-7 -7 -12 -26 -12 -43 0 -17 5 -36 12 -43 14 -14 64 -16
72 -3 3 5 -9 8 -26 7 -23 -1 -33 4 -36 17 -3 14 4 17 37 17 33 0 41 4 41 18 0
25 -20 42 -50 42 -14 0 -31 -5 -38 -12z m61 -12 c7 -17 -1 -26 -24 -26 -21 0
-33 15 -24 30 9 15 42 12 48 -4z"/>
<path d="M8231 1931 l1 -56 8 48 c10 56 13 62 35 54 10 -5 15 -20 15 -52 0
-60 18 -58 22 3 3 39 6 47 23 47 17 0 20 -8 23 -47 2 -27 7 -48 13 -48 11 0
12 80 1 97 -4 7 -33 11 -75 10 l-67 -1 1 -55z"/>
<path d="M8415 1980 c-4 -6 6 -7 25 -4 42 9 41 -20 -2 -32 -26 -8 -33 -15 -33
-34 0 -23 4 -25 51 -26 l50 -2 -6 42 c-3 23 -10 47 -14 54 -9 14 -62 16 -71 2z
m55 -60 c0 -25 -27 -37 -43 -21 -9 10 -8 16 7 27 27 19 36 18 36 -6z"/>
<path d="M8528 1965 c-8 -18 -9 -34 -2 -53 8 -22 16 -27 42 -27 24 0 32 -4 29
-15 -2 -10 -14 -14 -37 -13 -33 1 -34 0 -16 -13 21 -15 55 -10 68 10 4 6 8 38
8 72 l0 61 -40 1 c-34 2 -42 -2 -52 -23z m68 -9 c8 -35 -4 -66 -26 -66 -22 0
-34 31 -26 66 4 15 14 24 26 24 12 0 22 -9 26 -24z"/>
<path d="M8650 1936 c0 -68 18 -75 22 -8 3 39 6 47 23 47 17 0 20 -8 23 -47 2
-27 8 -48 13 -48 6 0 9 22 7 53 l-3 52 -42 3 -43 3 0 -55z"/>
<path d="M8780 1981 c0 -6 12 -9 26 -8 39 3 40 -17 2 -28 -26 -8 -33 -15 -33
-35 0 -24 3 -25 55 -26 30 -1 49 1 43 3 -7 3 -13 20 -13 38 0 53 -9 65 -46 65
-19 0 -34 -4 -34 -9z m57 -75 c-4 -9 -16 -16 -27 -16 -25 0 -28 37 -2 43 23 5
36 -8 29 -27z"/>
<path d="M8965 1980 c-4 -6 6 -7 25 -4 42 9 41 -20 -2 -32 -26 -8 -33 -15 -33
-34 0 -23 4 -25 51 -26 l50 -2 -6 42 c-3 23 -10 47 -14 54 -9 14 -62 16 -71 2z
m55 -60 c0 -25 -27 -37 -43 -21 -9 10 -8 16 7 27 27 19 36 18 36 -6z"/>
<path d="M9127 1983 c-11 -10 -8 -103 3 -103 6 0 10 25 10 55 0 56 -1 60 -13
48z"/>
<path d="M9182 1978 c-17 -17 -15 -73 3 -88 8 -7 26 -10 39 -8 22 4 25 1 29
-26 2 -17 5 5 5 49 l2 81 -33 2 c-18 1 -38 -3 -45 -10z m64 -22 c7 -31 -12
-68 -34 -64 -17 3 -28 47 -18 74 9 24 45 17 52 -10z"/>
<path d="M9304 1940 l1 -55 43 -1 42 -2 0 54 c0 30 -4 54 -10 54 -5 0 -10 -15
-10 -34 0 -47 -9 -66 -31 -66 -19 0 -24 13 -33 75 -2 17 -3 5 -2 -25z"/>
<path d="M9426 1981 c-3 -5 8 -8 25 -7 44 2 48 -20 5 -28 -35 -7 -50 -25 -40
-50 4 -10 20 -14 53 -14 46 1 47 2 43 32 -8 72 -10 76 -47 76 -18 0 -36 -4
-39 -9z m59 -61 c0 -22 -32 -37 -47 -22 -11 11 -9 16 7 28 22 16 40 14 40 -6z"/>
<path d="M12608 1965 c-17 -38 0 -79 34 -83 15 -2 35 2 45 8 15 9 13 10 -10 5
-28 -6 -57 8 -57 26 0 5 18 9 40 9 32 0 40 4 40 18 0 47 -72 60 -92 17z m70
-2 c4 -16 -22 -27 -43 -19 -22 8 -6 38 18 34 11 -2 22 -9 25 -15z"/>
<path d="M12737 1964 c16 -25 16 -28 0 -55 -9 -16 -12 -29 -7 -29 5 0 15 10
21 22 l12 22 19 -24 c24 -30 35 -19 13 13 -15 24 -15 27 0 51 10 14 13 26 9
26 -5 0 -15 -10 -22 -21 l-14 -21 -14 21 c-22 31 -38 26 -17 -5z"/>
<path d="M12839 1966 c-17 -36 1 -80 34 -84 15 -2 34 2 44 8 15 9 13 10 -10 5
-28 -6 -57 8 -57 26 0 5 18 9 40 9 32 0 40 4 40 18 0 46 -72 60 -91 18z m68
-1 c8 -22 -2 -28 -31 -21 -17 4 -23 11 -20 21 8 20 43 19 51 0z"/>
<path d="M12961 1933 l1 -58 9 45 c5 25 16 51 26 58 15 11 14 12 -10 12 -26 0
-27 -1 -26 -57z"/>
<path d="M13036 1975 c-11 -29 -7 -72 8 -85 19 -15 58 -9 64 10 5 13 3 13 -11
1 -26 -21 -47 -6 -47 34 0 40 21 55 47 34 14 -12 16 -12 11 1 -7 22 -64 25
-72 5z"/>
<path d="M13140 1935 c0 -30 5 -55 10 -55 6 0 10 25 10 55 0 30 -4 55 -10 55
-5 0 -10 -25 -10 -55z"/>
<path d="M13255 1980 c-4 -6 6 -9 26 -8 44 4 48 -18 4 -26 -31 -6 -35 -11 -35
-36 0 -29 1 -30 48 -28 47 2 48 3 44 33 -8 71 -10 75 -47 75 -18 0 -37 -5 -40
-10z m60 -60 c0 -22 -32 -37 -47 -22 -11 11 -9 16 7 28 22 16 40 14 40 -6z"/>
<path d="M13430 1935 c0 -30 5 -55 10 -55 6 0 10 25 10 55 0 30 -4 55 -10 55
-5 0 -10 -25 -10 -55z"/>
<path d="M13486 1974 c-11 -28 -6 -71 8 -83 25 -21 69 -9 80 21 15 44 -6 78
-48 78 -22 0 -36 -6 -40 -16z m70 -18 c7 -31 -12 -68 -34 -64 -17 3 -28 47
-18 74 9 24 45 17 52 -10z"/>
<path d="M13600 1935 c0 -30 5 -55 10 -55 6 0 10 15 10 34 0 47 9 66 30 66 21
0 30 -19 30 -66 0 -19 5 -34 10 -34 11 0 13 33 4 79 -6 29 -9 31 -50 31 l-44
0 0 -55z"/>
<path d="M13788 1984 c-10 -9 -10 -50 -2 -82 6 -19 12 -22 45 -20 l39 2 -1 55
-2 56 -6 -43 c-14 -80 -58 -85 -63 -7 -2 26 -6 43 -10 39z"/>
<path d="M14010 1981 c0 -5 12 -9 26 -8 39 3 40 -17 2 -28 -26 -8 -33 -15 -33
-35 0 -23 3 -25 54 -26 29 -1 49 1 43 5 -6 3 -12 27 -14 51 -3 44 -4 45 -40
48 -21 2 -38 -1 -38 -7z m55 -67 c0 -12 -8 -20 -22 -22 -17 -3 -23 2 -23 16 0
20 16 33 35 28 6 -2 10 -11 10 -22z"/>
<path d="M14131 1931 l1 -56 8 48 c10 56 13 62 35 54 10 -5 15 -20 15 -52 0
-60 18 -58 22 3 3 39 6 47 23 47 17 0 20 -8 23 -47 2 -27 7 -48 13 -48 11 0
12 80 1 97 -4 7 -33 11 -75 10 l-67 -1 1 -55z"/>
<path d="M14312 1978 c-15 -15 -16 -52 -2 -79 12 -21 64 -27 75 -8 11 17 -3
23 -20 9 -31 -26 -60 31 -36 69 8 12 14 13 36 3 21 -10 26 -10 23 0 -6 18 -60
22 -76 6z"/>
<path d="M14422 1978 c-7 -7 -12 -26 -12 -43 0 -38 16 -55 50 -55 14 0 31 5
38 12 13 13 16 56 6 82 -7 19 -64 22 -82 4z m63 -43 c0 -33 -4 -41 -22 -43
-25 -4 -38 26 -29 64 5 19 12 25 29 22 18 -3 22 -9 22 -43z"/>
<path d="M14657 1983 c-4 -3 -7 -11 -7 -17 0 -6 5 -5 12 2 17 17 48 15 48 -2
0 -8 -13 -17 -30 -21 -28 -6 -47 -35 -35 -54 3 -6 27 -9 53 -9 l48 1 -6 42
c-3 22 -10 46 -14 53 -8 13 -58 17 -69 5z m53 -63 c0 -25 -27 -37 -43 -21 -9
10 -8 16 7 27 27 19 36 18 36 -6z"/>
<path d="M14897 1983 c-10 -9 -8 -75 2 -91 5 -8 22 -12 42 -10 26 2 36 9 43
30 15 43 -6 78 -47 78 -19 0 -37 -3 -40 -7z m67 -28 c8 -30 -8 -65 -30 -65
-23 0 -38 43 -25 69 16 29 47 27 55 -4z"/>
<path d="M15010 1935 c0 -30 5 -55 10 -55 6 0 10 17 10 37 0 20 7 45 17 55 15
17 15 18 -10 18 -26 0 -27 -2 -27 -55z"/>
<path d="M15087 1983 c-11 -10 -8 -103 3 -103 6 0 10 25 10 55 0 56 -1 60 -13
48z"/>
<path d="M15134 1975 c-8 -20 12 -43 39 -47 12 -2 23 -12 25 -22 4 -17 0 -18
-32 -13 -22 3 -34 2 -31 -4 10 -15 72 -11 79 6 9 25 -3 42 -35 49 -18 3 -29
12 -29 22 0 13 6 15 30 11 17 -4 30 -2 30 3 0 17 -70 12 -76 -5z"/>
<path d="M3340 1890 c0 -5 5 -10 10 -10 6 0 10 5 10 10 0 6 -4 10 -10 10 -5 0
-10 -4 -10 -10z"/>
<path d="M9540 1890 c0 -5 5 -10 10 -10 6 0 10 5 10 10 0 6 -4 10 -10 10 -5 0
-10 -4 -10 -10z"/>
<path d="M15250 1890 c0 -5 5 -10 10 -10 6 0 10 5 10 10 0 6 -4 10 -10 10 -5
0 -10 -4 -10 -10z"/>
<path d="M2040 1516 c-6 -8 -10 -25 -8 -38 2 -18 9 -23 33 -23 24 0 31 5 33
23 4 25 -13 52 -33 52 -7 0 -18 -7 -25 -14z m35 -26 c3 -5 -1 -10 -10 -10 -9
0 -13 5 -10 10 3 6 8 10 10 10 2 0 7 -4 10 -10z"/>
<path d="M2507 1523 c-3 -5 -8 -34 -12 -66 -6 -56 -6 -58 28 -92 42 -42 35
-67 -12 -39 -17 10 -34 15 -38 10 -10 -9 36 -45 58 -46 10 0 20 -11 23 -26 10
-37 22 -18 29 43 6 50 5 52 -23 61 -40 14 -54 44 -41 85 l11 33 79 0 79 1 7
-33 c7 -42 -8 -73 -45 -86 -30 -10 -31 -22 -14 -107 8 -39 27 -8 22 38 -3 33
0 42 17 49 36 17 49 54 38 119 -7 44 -12 57 -23 53 -34 -10 -140 -11 -159 -1
-11 6 -22 8 -24 4z"/>
<path d="M7326 1515 c-19 -20 -20 -26 -3 -49 26 -36 84 4 61 42 -15 23 -38 26
-58 7z m34 -25 c0 -5 -4 -10 -10 -10 -5 0 -10 5 -10 10 0 6 5 10 10 10 6 0 10
-4 10 -10z"/>
<path d="M7797 1523 c-3 -5 -8 -34 -12 -65 -8 -61 4 -91 44 -113 14 -7 17 -15
11 -24 -7 -12 -12 -12 -34 2 -14 9 -33 17 -43 17 -15 -1 -13 -5 10 -25 15 -14
37 -25 48 -25 12 0 19 -7 19 -19 0 -29 19 -36 24 -9 17 82 15 98 -9 104 -41
10 -58 38 -50 82 l6 39 80 -1 79 0 11 -33 c13 -41 -1 -71 -41 -85 -28 -9 -29
-11 -23 -61 3 -29 9 -56 14 -61 10 -11 22 34 17 65 -2 15 8 33 30 55 33 33 33
35 27 91 -9 71 -11 76 -35 63 -10 -5 -44 -10 -75 -10 -31 0 -65 5 -75 10 -10
6 -21 7 -23 3z"/>
<path d="M12618 1519 c-33 -19 -15 -69 24 -69 15 0 38 27 38 44 0 7 -31 36
-38 36 -4 0 -15 -5 -24 -11z m32 -29 c0 -5 -4 -10 -10 -10 -5 0 -10 5 -10 10
0 6 5 10 10 10 6 0 10 -4 10 -10z"/>
<path d="M13086 1518 c-28 -91 -23 -129 22 -165 37 -31 18 -51 -26 -26 -17 10
-34 14 -38 10 -10 -10 25 -36 59 -43 17 -4 27 -13 27 -25 0 -10 4 -20 9 -23
10 -7 25 99 16 114 -3 5 -12 10 -19 10 -28 0 -48 37 -42 77 l7 38 79 1 78 0 6
-29 c11 -55 7 -67 -30 -84 -27 -14 -34 -22 -30 -38 3 -11 6 -37 6 -57 0 -21 5
-38 10 -38 6 0 10 21 10 47 0 40 4 50 33 74 30 25 32 31 30 84 -2 66 -16 89
-43 75 -25 -13 -116 -13 -141 0 -14 8 -20 8 -23 -2z"/>
<path d="M2179 1435 c-35 -19 -51 -61 -47 -126 l3 -54 35 0 35 0 3 58 c4 77
26 72 30 -7 l3 -57 32 3 32 3 3 66 c2 58 0 70 -20 93 -28 32 -74 41 -109 21z
m90 -41 c26 -33 30 -114 6 -114 -11 0 -15 11 -15 39 0 57 -8 71 -40 71 -32 0
-40 -14 -40 -72 0 -27 -4 -38 -12 -35 -20 7 -15 93 7 117 26 29 69 26 94 -6z"/>
<path d="M7473 1440 c-39 -16 -54 -52 -51 -122 3 -61 4 -63 32 -66 36 -4 46
10 46 71 0 67 18 59 22 -10 l3 -58 35 0 35 0 3 54 c4 66 -12 107 -49 126 -32
17 -44 18 -76 5z m75 -36 c18 -12 22 -25 22 -70 0 -30 -4 -54 -10 -54 -5 0
-10 19 -10 43 0 55 -11 69 -46 65 -27 -3 -29 -6 -32 -55 -2 -38 -7 -53 -18
-53 -23 0 -18 82 7 114 23 29 54 33 87 10z"/>
<path d="M12765 1441 c-11 -5 -28 -17 -37 -28 -21 -22 -34 -99 -24 -138 6 -22
11 -26 39 -23 31 3 32 5 37 58 3 30 10 55 15 55 6 0 12 -25 15 -55 l5 -55 35
0 35 0 0 67 c0 59 -3 71 -25 92 -29 28 -66 39 -95 27z m75 -41 c15 -15 20 -33
20 -70 0 -27 -4 -50 -10 -50 -5 0 -10 13 -10 29 0 16 -5 42 -10 56 -8 21 -16
26 -38 23 -25 -3 -27 -7 -30 -55 -2 -38 -7 -53 -18 -53 -10 0 -14 13 -14 50 0
57 24 90 65 90 14 0 34 -9 45 -20z"/>
<path d="M2037 1434 c-4 -4 -7 -47 -7 -96 l0 -88 35 0 36 0 -3 93 c-3 90 -3
92 -28 95 -14 2 -29 0 -33 -4z m41 -92 c2 -51 0 -62 -13 -62 -12 0 -15 13 -15
66 0 48 3 65 13 62 7 -3 13 -28 15 -66z"/>
<path d="M7314 1427 c-2 -7 -4 -49 -2 -93 l3 -79 35 0 35 0 0 90 0 90 -33 3
c-21 2 -34 -2 -38 -11z m46 -82 c0 -37 -4 -65 -10 -65 -6 0 -10 28 -10 65 0
37 4 65 10 65 6 0 10 -28 10 -65z"/>
<path d="M12604 1427 c-3 -8 -4 -49 -2 -93 l3 -79 35 0 35 0 3 70 c4 98 -2
115 -39 115 -16 0 -32 -6 -35 -13z m46 -82 c0 -37 -4 -65 -10 -65 -6 0 -10 28
-10 65 0 37 4 65 10 65 6 0 10 -28 10 -65z"/>
<path d="M8840 500 c0 -5 5 -10 10 -10 6 0 10 5 10 10 0 6 -4 10 -10 10 -5 0
-10 -4 -10 -10z"/>
<path d="M9370 500 c0 -5 5 -10 11 -10 5 0 7 5 4 10 -3 6 -8 10 -11 10 -2 0
-4 -4 -4 -10z"/>
<path d="M9510 481 c0 -29 -2 -30 -30 -25 -42 9 -60 -10 -60 -61 0 -52 15 -65
69 -63 l41 1 0 83 c0 46 -4 86 -10 89 -6 4 -10 -6 -10 -24z m-6 -65 c3 -14 2
-36 -4 -50 -17 -47 -60 -26 -60 29 0 38 6 45 36 45 15 0 24 -8 28 -24z"/>
<path d="M9788 483 c-3 -25 -7 -28 -34 -25 -42 4 -56 -16 -52 -75 l3 -48 53
-1 52 -1 0 83 c0 79 -15 125 -22 67z m-4 -66 c12 -49 -20 -91 -50 -66 -14 12
-19 70 -7 82 16 16 51 6 57 -16z"/>
<path d="M9997 503 c-4 -3 -7 -17 -7 -29 0 -20 -4 -23 -28 -18 -36 7 -62 -17
-62 -57 0 -54 15 -69 65 -67 l45 1 0 89 c0 88 -1 94 -13 81z m-9 -101 c5 -55
-36 -84 -58 -41 -6 11 -8 34 -5 50 6 25 11 30 33 27 22 -2 28 -9 30 -36z"/>
<path d="M10910 421 c0 -54 4 -91 10 -91 6 0 10 35 10 84 0 47 -4 88 -10 91
-6 4 -10 -27 -10 -84z"/>
<path d="M7718 490 c52 -12 74 -38 70 -81 -2 -21 0 -35 4 -33 5 3 8 20 8 39 0
41 -47 86 -88 84 -25 -1 -24 -2 6 -9z"/>
<path d="M7905 484 c-9 -9 -13 -19 -10 -22 3 -3 11 0 17 6 17 17 55 15 62 -4
4 -11 -9 -33 -39 -65 -25 -26 -45 -53 -45 -59 0 -6 24 -10 56 -10 34 0 53 4
49 10 -3 6 -22 10 -41 10 -19 0 -34 2 -34 5 0 3 18 23 40 44 22 21 40 45 40
54 0 41 -63 62 -95 31z"/>
<path d="M8046 484 c-18 -18 -22 -104 -6 -135 13 -23 62 -26 84 -3 23 23 22
116 -2 137 -23 21 -56 22 -76 1z m68 -20 c11 -28 6 -90 -8 -110 -33 -43 -70
31 -52 103 7 27 50 33 60 7z"/>
<path d="M8184 486 c-10 -8 -16 -18 -11 -22 4 -4 13 -2 19 4 7 7 22 12 35 12
37 0 29 -40 -17 -85 -55 -54 -52 -65 16 -65 34 0 53 4 49 10 -3 6 -22 10 -41
10 -40 0 -44 13 -8 36 45 30 61 86 30 106 -18 12 -51 9 -72 -6z"/>
<path d="M8369 483 c-23 -28 -69 -98 -69 -106 0 -4 16 -7 36 -7 27 0 37 -5 41
-20 3 -11 8 -20 12 -20 11 0 29 50 20 56 -5 3 -9 30 -9 60 0 57 -7 65 -31 37z
m9 -65 c-2 -25 -8 -34 -25 -36 -27 -4 -28 0 -8 38 20 40 37 38 33 -2z"/>
<path d="M8524 485 c-10 -25 1 -122 15 -139 17 -21 85 -21 105 0 18 18 23 154
6 154 -6 0 -10 -28 -10 -64 0 -84 -23 -111 -71 -86 -16 9 -19 22 -19 75 0 62
-14 93 -26 60z"/>
<path d="M10260 415 c0 -50 4 -85 10 -85 6 0 10 13 10 29 0 26 4 29 40 34 49
6 70 22 70 52 0 35 -31 55 -83 55 l-47 0 0 -85z m99 51 c16 -19 3 -45 -25 -52
-37 -9 -54 2 -54 36 0 27 3 30 34 30 18 0 39 -6 45 -14z"/>
<path d="M7650 475 c-7 -9 -11 -17 -8 -20 2 -2 12 4 21 15 9 11 13 20 8 20 -5
0 -14 -7 -21 -15z"/>
<path d="M7682 448 c-17 -17 -15 -65 4 -76 17 -10 64 -4 64 7 0 4 -13 6 -29 3
-31 -4 -46 16 -35 50 4 15 13 19 34 16 16 -2 27 -1 24 4 -8 12 -48 10 -62 -4z"/>
<path d="M8700 393 c0 -76 18 -84 22 -10 3 48 5 52 31 55 27 3 27 2 27 -52 0
-31 5 -56 10 -56 6 0 10 27 10 60 0 64 1 63 -62 64 l-38 1 0 -62z"/>
<path d="M8840 395 c0 -37 4 -65 10 -65 6 0 10 28 10 65 0 37 -4 65 -10 65 -6
0 -10 -28 -10 -65z"/>
<path d="M8890 449 c0 -31 35 -119 47 -119 13 0 39 50 58 109 5 17 4 22 -6 19
-7 -2 -20 -26 -30 -54 l-17 -49 -16 37 c-9 21 -16 42 -16 47 0 5 -4 13 -10 16
-5 3 -10 1 -10 -6z"/>
<path d="M9038 450 c-25 -15 -33 -66 -14 -95 12 -19 25 -25 51 -25 18 0 37 5
40 11 11 17 -2 21 -23 8 -17 -10 -23 -10 -36 0 -30 25 -19 41 29 41 37 0 45 3
45 18 0 40 -53 64 -92 42z m62 -30 c0 -16 -7 -20 -30 -20 -18 0 -30 5 -30 13
0 20 10 27 37 27 16 0 23 -6 23 -20z"/>
<path d="M9160 393 c0 -36 4 -63 10 -63 6 0 10 18 10 39 0 49 8 71 26 71 8 0
14 4 14 10 0 5 -13 8 -30 7 -30 -2 -30 -2 -30 -64z"/>
<path d="M9252 451 c-23 -14 -8 -45 31 -64 20 -9 37 -22 37 -27 0 -18 -30 -23
-57 -11 -19 9 -24 9 -21 -1 5 -16 41 -22 75 -13 37 9 27 46 -19 68 -52 24 -50
41 5 33 39 -5 40 -5 23 9 -22 17 -54 19 -74 6z"/>
<path d="M9370 396 c0 -37 4 -66 10 -66 6 0 10 26 10 59 0 33 -4 63 -10 66 -6
4 -10 -18 -10 -59z"/>
<path d="M9574 445 c-17 -14 -16 -14 24 -9 34 5 42 4 42 -9 0 -10 -13 -18 -35
-23 -40 -7 -58 -31 -44 -56 7 -12 23 -16 64 -15 36 1 52 4 45 11 -6 6 -10 28
-10 51 0 23 -5 46 -12 53 -16 16 -50 15 -74 -3z m64 -71 c-5 -25 -35 -41 -49
-27 -18 18 -3 43 26 43 19 0 26 -5 23 -16z"/>
<path d="M10060 440 c-24 -24 -26 -57 -4 -88 12 -18 24 -22 52 -20 19 2 37 9
40 16 3 11 0 12 -17 2 -28 -15 -61 -4 -61 21 0 16 7 19 45 19 49 0 56 10 29
48 -19 28 -57 29 -84 2z m70 -20 c0 -15 -7 -20 -24 -20 -27 0 -41 14 -31 30 3
6 17 10 31 10 17 0 24 -5 24 -20z"/>
<path d="M10443 453 c-27 -10 -11 -21 22 -16 51 8 48 -22 -2 -34 -33 -8 -38
-12 -38 -38 0 -30 1 -30 56 -31 l56 -1 -9 55 c-5 31 -14 60 -21 64 -13 9 -45
9 -64 1z m55 -79 c-5 -25 -35 -41 -49 -27 -18 18 -3 43 26 43 19 0 26 -5 23
-16z"/>
<path d="M10564 451 c-9 -9 -3 -121 6 -121 6 0 10 15 10 33 0 56 10 78 34 75
18 -3 21 -11 24 -55 2 -29 7 -53 12 -53 5 0 10 24 12 53 3 45 6 52 26 55 21 3
22 0 22 -52 0 -43 3 -56 15 -56 20 0 21 88 1 116 -13 17 -18 18 -45 7 -18 -6
-33 -7 -37 -2 -5 9 -71 9 -80 0z"/>
<path d="M10774 451 c-9 -9 -4 -171 6 -171 6 0 10 13 10 28 0 26 2 28 32 24
37 -6 58 16 58 61 0 51 -16 68 -61 65 -22 -2 -42 -5 -45 -7z m82 -37 c8 -31
-10 -74 -31 -74 -21 0 -39 43 -31 74 5 19 13 26 31 26 18 0 26 -7 31 -26z"/>
<path d="M10976 444 c-19 -18 -21 -85 -4 -102 7 -7 26 -12 43 -12 42 0 55 16
55 67 0 32 -5 45 -19 53 -28 14 -57 12 -75 -6z m72 -42 c6 -57 -38 -85 -59
-38 -7 14 -9 36 -5 51 5 21 12 26 34 23 23 -2 28 -8 30 -36z"/>
<path d="M11104 451 c-2 -2 -4 -31 -4 -63 0 -44 3 -58 14 -58 11 0 16 15 18
53 3 48 5 52 28 52 23 0 25 -4 28 -52 2 -29 7 -53 13 -53 14 0 11 106 -4 118
-12 10 -83 12 -93 3z"/>
<path d="M11263 453 c-27 -10 -11 -21 22 -16 51 8 48 -22 -2 -34 -33 -8 -38
-12 -38 -38 0 -30 1 -30 57 -31 52 -1 56 0 48 17 -6 10 -10 35 -10 57 0 47
-30 65 -77 45z m55 -79 c-5 -25 -35 -41 -49 -27 -18 18 -3 43 26 43 19 0 26
-5 23 -16z"/>
<path d="M7632 415 c0 -16 2 -22 5 -12 2 9 2 23 0 30 -3 6 -5 -1 -5 -18z"/>
<path d="M7640 371 c0 -30 86 -53 119 -32 8 5 -4 7 -31 4 -37 -4 -50 -1 -67
16 -11 11 -21 17 -21 12z"/>
</g>
</svg>
